<svg width="1114" height="1048" viewBox="0 0 1114 1048" fill="none" xmlns="http://www.w3.org/2000/svg">
<path d="M126.027 370H115.195L112.788 368.796L71.8673 306.212H70.6637V368.796L69.4602 370H59.8319L58.6283 368.796V286.956L59.8319 285.752H70.6637L73.0708 286.956L113.991 349.54H115.195V286.956L116.398 285.752H126.027L127.23 286.956V368.796L126.027 370ZM141.729 327.876C141.729 321.537 142.612 315.72 144.377 310.425C146.142 305.129 148.71 300.556 152.079 296.704C155.449 292.853 159.581 289.884 164.476 287.798C169.451 285.632 175.107 284.549 181.446 284.549C187.784 284.549 193.401 285.632 198.295 287.798C203.27 289.884 207.442 292.853 210.812 296.704C214.182 300.556 216.75 305.129 218.515 310.425C220.28 315.72 221.163 321.537 221.163 327.876C221.163 334.215 220.28 340.032 218.515 345.327C216.75 350.623 214.182 355.196 210.812 359.048C207.442 362.899 203.27 365.908 198.295 368.074C193.401 370.16 187.784 371.204 181.446 371.204C175.107 371.204 169.451 370.16 164.476 368.074C159.581 365.908 155.449 362.899 152.079 359.048C148.71 355.196 146.142 350.623 144.377 345.327C142.612 340.032 141.729 334.215 141.729 327.876ZM153.764 327.876C153.764 332.69 154.366 337.103 155.57 341.115C156.773 345.047 158.538 348.457 160.865 351.345C163.192 354.234 166.081 356.48 169.531 358.085C172.981 359.609 176.953 360.372 181.446 360.372C185.939 360.372 189.911 359.609 193.361 358.085C196.811 356.48 199.699 354.234 202.026 351.345C204.353 348.457 206.118 345.047 207.322 341.115C208.525 337.103 209.127 332.69 209.127 327.876C209.127 323.062 208.525 318.689 207.322 314.758C206.118 310.746 204.353 307.296 202.026 304.407C199.699 301.519 196.811 299.312 193.361 297.788C189.911 296.183 185.939 295.381 181.446 295.381C176.953 295.381 172.981 296.183 169.531 297.788C166.081 299.312 163.192 301.519 160.865 304.407C158.538 307.296 156.773 310.746 155.57 314.758C154.366 318.689 153.764 323.062 153.764 327.876ZM246.465 370H236.837L235.633 368.796V286.956L236.837 285.752H246.465L247.669 286.956V368.796L246.465 370Z" fill="#FFFBF1"/>
<path d="M95.072 461H88.544L64.032 424.008V461H57.76V415.624H66.144L88.8 450.44V415.624H95.072V461ZM119.757 456.584C124.877 456.584 129.357 452.744 129.357 445.576C129.357 438.472 124.877 434.632 119.757 434.632C114.637 434.632 110.156 438.472 110.156 445.576C110.156 452.744 114.637 456.584 119.757 456.584ZM119.757 429.256C128.972 429.256 135.5 436.232 135.5 445.576C135.5 454.984 128.972 461.96 119.757 461.96C110.54 461.96 104.012 454.984 104.012 445.576C104.012 436.232 110.54 429.256 119.757 429.256ZM149.789 461H143.837V430.216H149.789V461ZM142.493 418.568C142.493 416.136 144.413 414.216 146.781 414.216C149.213 414.216 151.133 416.136 151.133 418.568C151.133 420.936 149.213 422.856 146.781 422.856C144.413 422.856 142.493 420.936 142.493 418.568ZM177.327 453L182.767 451.08C183.151 454.28 185.583 456.84 189.935 456.84C193.327 456.84 195.183 454.92 195.183 452.744C195.183 450.824 193.775 449.352 191.215 448.776L185.967 447.624C181.167 446.6 178.287 443.336 178.287 438.984C178.287 433.736 183.215 429.256 189.231 429.256C197.679 429.256 200.303 434.76 200.943 437.512L195.631 439.496C195.375 437.896 194.095 434.376 189.231 434.376C186.159 434.376 184.111 436.36 184.111 438.472C184.111 440.328 185.263 441.672 187.631 442.184L192.623 443.272C198.191 444.488 201.135 447.88 201.135 452.424C201.135 456.776 197.487 461.96 189.871 461.96C181.423 461.96 177.839 456.52 177.327 453ZM215.736 461H209.784V430.216H215.736V461ZM208.44 418.568C208.44 416.136 210.36 414.216 212.728 414.216C215.16 414.216 217.08 416.136 217.08 418.568C217.08 420.936 215.16 422.856 212.728 422.856C210.36 422.856 208.44 420.936 208.44 418.568ZM224.692 452.744C224.692 447.24 228.724 444.168 234.036 443.4L242.356 442.184C244.212 441.928 244.724 440.968 244.724 439.88C244.724 436.872 242.74 434.376 238.068 434.376C233.844 434.376 231.476 437 231.092 440.584L225.332 439.24C225.972 433.352 231.284 429.256 237.94 429.256C247.156 429.256 250.74 434.504 250.74 440.52V455.944C250.74 458.632 250.996 460.232 251.124 461H245.236C245.108 460.232 244.916 459.08 244.916 456.84C243.572 459.016 240.5 461.96 234.996 461.96C228.724 461.96 224.692 457.608 224.692 452.744ZM235.828 456.904C240.756 456.904 244.724 454.536 244.724 447.816V446.408L235.316 447.816C232.756 448.2 230.836 449.672 230.836 452.424C230.836 454.728 232.756 456.904 235.828 456.904ZM266.704 461H260.752V430.216H266.512V434.312C268.432 430.92 272.272 429.32 275.856 429.32C279.696 429.32 283.408 431.176 285.072 435.144C287.504 430.728 291.472 429.32 295.376 429.32C300.752 429.32 306 432.968 306 441.032V461H300.048V441.672C300.048 437.64 298.064 434.632 293.52 434.632C289.296 434.632 286.416 437.96 286.416 442.376V461H280.4V441.672C280.4 437.704 278.48 434.632 273.872 434.632C269.584 434.632 266.704 437.832 266.704 442.44V461ZM329.451 456.584C334.571 456.584 339.051 452.744 339.051 445.576C339.051 438.472 334.571 434.632 329.451 434.632C324.331 434.632 319.851 438.472 319.851 445.576C319.851 452.744 324.331 456.584 329.451 456.584ZM329.451 429.256C338.667 429.256 345.195 436.232 345.195 445.576C345.195 454.984 338.667 461.96 329.451 461.96C320.235 461.96 313.707 454.984 313.707 445.576C313.707 436.232 320.235 429.256 329.451 429.256ZM393.362 457.288C391.698 460.488 387.858 461.96 384.274 461.96C377.106 461.96 372.754 456.584 372.754 449.608V430.216H378.77V448.712C378.77 452.936 380.69 456.648 385.746 456.648C390.61 456.648 393.042 453.448 393.042 448.776V430.216H399.058V455.304C399.058 457.736 399.25 459.912 399.378 461H393.618C393.49 460.296 393.362 458.568 393.362 457.288ZM415.98 443.208V461H409.964V430.216H415.852V434.632C418.092 430.792 421.74 429.32 425.324 429.32C432.684 429.32 436.332 434.632 436.332 441.48V461H430.316V442.504C430.316 438.216 428.524 434.76 423.148 434.76C418.412 434.76 415.98 438.536 415.98 443.208ZM463.843 462.664L469.667 461.32C470.115 465.608 473.379 468.872 478.051 468.872C484.515 468.872 487.459 465.544 487.459 458.888V454.472C485.987 457.288 482.659 459.528 478.051 459.528C469.859 459.528 463.907 453.32 463.907 444.616C463.907 436.296 469.603 429.64 478.051 429.64C482.787 429.64 485.987 431.432 487.523 434.504V430.216H493.475V458.696C493.475 466.504 489.635 474.12 478.051 474.12C470.371 474.12 464.611 469.256 463.843 462.664ZM478.947 454.472C484.131 454.472 487.715 450.568 487.715 444.616C487.715 438.664 484.131 434.76 478.947 434.76C473.635 434.76 470.051 438.664 470.051 444.616C470.051 450.632 473.507 454.472 478.947 454.472ZM520.811 429.896V436.296C519.915 436.168 519.019 436.104 518.187 436.104C513.131 436.104 509.739 438.792 509.739 445.576V461H503.723V430.216H509.611V435.592C511.851 430.856 515.691 429.704 518.827 429.704C519.659 429.704 520.491 429.832 520.811 429.896ZM548.464 457.288C546.8 460.488 542.96 461.96 539.376 461.96C532.208 461.96 527.856 456.584 527.856 449.608V430.216H533.872V448.712C533.872 452.936 535.792 456.648 540.848 456.648C545.712 456.648 548.144 453.448 548.144 448.776V430.216H554.16V455.304C554.16 457.736 554.352 459.912 554.48 461H548.72C548.592 460.296 548.464 458.568 548.464 457.288ZM571.018 473.16H565.066V430.216H570.89V435.016C572.554 431.944 576.202 429.512 581.194 429.512C590.41 429.512 595.338 436.616 595.338 445.576C595.338 454.728 590.026 461.832 581.002 461.832C576.266 461.832 572.682 459.592 571.018 456.84V473.16ZM589.194 445.576C589.194 439.432 585.738 434.824 580.106 434.824C574.602 434.824 570.954 439.432 570.954 445.576C570.954 451.912 574.602 456.456 580.106 456.456C585.674 456.456 589.194 451.912 589.194 445.576ZM609.595 473.16H603.643V430.216H609.467V435.016C611.131 431.944 614.779 429.512 619.771 429.512C628.987 429.512 633.915 436.616 633.915 445.576C633.915 454.728 628.603 461.832 619.579 461.832C614.843 461.832 611.259 459.592 609.595 456.84V473.16ZM627.771 445.576C627.771 439.432 624.315 434.824 618.683 434.824C613.179 434.824 609.531 439.432 609.531 445.576C609.531 451.912 613.179 456.456 618.683 456.456C624.251 456.456 627.771 451.912 627.771 445.576ZM655.405 456.584C660.525 456.584 665.005 452.744 665.005 445.576C665.005 438.472 660.525 434.632 655.405 434.632C650.285 434.632 645.805 438.472 645.805 445.576C645.805 452.744 650.285 456.584 655.405 456.584ZM655.405 429.256C664.621 429.256 671.149 436.232 671.149 445.576C671.149 454.984 664.621 461.96 655.405 461.96C646.189 461.96 639.661 454.984 639.661 445.576C639.661 436.232 646.189 429.256 655.405 429.256ZM702.611 445.512C702.611 451.848 705.875 456.52 711.635 456.52C717.139 456.52 720.531 451.72 720.531 445.384C720.531 439.048 717.203 434.696 711.699 434.696C706.195 434.696 702.611 439.176 702.611 445.512ZM720.595 456.84V456.328C719.123 459.272 715.859 461.832 711.059 461.832C702.035 461.832 696.467 454.664 696.467 445.512C696.467 436.808 702.355 429.384 711.059 429.384C716.499 429.384 719.443 432.072 720.467 434.568V414.664H726.419V455.304C726.419 458.248 726.675 460.488 726.739 461H720.915C720.787 460.296 720.595 458.696 720.595 456.84ZM743.244 461H737.292V430.216H743.244V461ZM735.948 418.568C735.948 416.136 737.868 414.216 740.236 414.216C742.668 414.216 744.588 416.136 744.588 418.568C744.588 420.936 742.668 422.856 740.236 422.856C737.868 422.856 735.948 420.936 735.948 418.568ZM54.88 517.664L60.704 516.32C61.152 520.608 64.416 523.872 69.088 523.872C75.552 523.872 78.496 520.544 78.496 513.888V509.472C77.024 512.288 73.696 514.528 69.088 514.528C60.896 514.528 54.944 508.32 54.944 499.616C54.944 491.296 60.64 484.64 69.088 484.64C73.824 484.64 77.024 486.432 78.56 489.504V485.216H84.512V513.696C84.512 521.504 80.672 529.12 69.088 529.12C61.408 529.12 55.648 524.256 54.88 517.664ZM69.984 509.472C75.168 509.472 78.752 505.568 78.752 499.616C78.752 493.664 75.168 489.76 69.984 489.76C64.672 489.76 61.088 493.664 61.088 499.616C61.088 505.632 64.544 509.472 69.984 509.472ZM100.712 516H94.76V485.216H100.712V516ZM93.416 473.568C93.416 471.136 95.336 469.216 97.704 469.216C100.136 469.216 102.056 471.136 102.056 473.568C102.056 475.936 100.136 477.856 97.704 477.856C95.336 477.856 93.416 475.936 93.416 473.568ZM124.771 511.584C129.892 511.584 134.372 507.744 134.372 500.576C134.372 493.472 129.892 489.632 124.771 489.632C119.651 489.632 115.171 493.472 115.171 500.576C115.171 507.744 119.651 511.584 124.771 511.584ZM124.771 484.256C133.987 484.256 140.515 491.232 140.515 500.576C140.515 509.984 133.987 516.96 124.771 516.96C115.555 516.96 109.027 509.984 109.027 500.576C109.027 491.232 115.555 484.256 124.771 484.256ZM174.283 485.216L161.995 516H155.915L143.435 485.216H150.219L158.987 508.96L167.819 485.216H174.283ZM178.447 507.744C178.447 502.24 182.479 499.168 187.791 498.4L196.111 497.184C197.967 496.928 198.479 495.968 198.479 494.88C198.479 491.872 196.495 489.376 191.823 489.376C187.599 489.376 185.231 492 184.847 495.584L179.087 494.24C179.727 488.352 185.039 484.256 191.695 484.256C200.911 484.256 204.495 489.504 204.495 495.52V510.944C204.495 513.632 204.751 515.232 204.879 516H198.991C198.863 515.232 198.671 514.08 198.671 511.84C197.327 514.016 194.255 516.96 188.751 516.96C182.479 516.96 178.447 512.608 178.447 507.744ZM189.583 511.904C194.511 511.904 198.479 509.536 198.479 502.816V501.408L189.071 502.816C186.511 503.2 184.591 504.672 184.591 507.424C184.591 509.728 186.511 511.904 189.583 511.904ZM220.523 498.208V516H214.507V485.216H220.395V489.632C222.635 485.792 226.283 484.32 229.867 484.32C237.227 484.32 240.875 489.632 240.875 496.48V516H234.859V497.504C234.859 493.216 233.067 489.76 227.691 489.76C222.955 489.76 220.523 493.536 220.523 498.208ZM257.037 516H251.085V485.216H257.037V516ZM249.741 473.568C249.741 471.136 251.661 469.216 254.029 469.216C256.461 469.216 258.381 471.136 258.381 473.568C258.381 475.936 256.461 477.856 254.029 477.856C251.661 477.856 249.741 475.936 249.741 473.568ZM319.729 500.512C319.729 506.848 322.993 511.52 328.753 511.52C334.257 511.52 337.649 506.72 337.649 500.384C337.649 494.048 334.321 489.696 328.817 489.696C323.313 489.696 319.729 494.176 319.729 500.512ZM337.713 511.84V511.328C336.241 514.272 332.977 516.832 328.177 516.832C319.153 516.832 313.585 509.664 313.585 500.512C313.585 491.808 319.473 484.384 328.177 484.384C333.617 484.384 336.561 487.072 337.585 489.568V469.664H343.537V510.304C343.537 513.248 343.793 515.488 343.857 516H338.033C337.905 515.296 337.713 513.696 337.713 511.84ZM358.314 497.44H375.146C375.018 493.024 372.138 489.568 366.698 489.568C361.642 489.568 358.57 493.472 358.314 497.44ZM376.042 505.44L381.226 507.232C379.498 512.672 374.57 516.96 367.402 516.96C359.146 516.96 351.914 510.944 351.914 500.512C351.914 490.848 358.89 484.256 366.634 484.256C376.106 484.256 381.418 490.784 381.418 500.384C381.418 501.152 381.354 501.92 381.29 502.304H358.122C358.25 507.808 362.218 511.648 367.402 511.648C372.394 511.648 374.89 508.896 376.042 505.44ZM386.857 508L392.297 506.08C392.681 509.28 395.113 511.84 399.465 511.84C402.857 511.84 404.713 509.92 404.713 507.744C404.713 505.824 403.305 504.352 400.745 503.776L395.497 502.624C390.697 501.6 387.817 498.336 387.817 493.984C387.817 488.736 392.745 484.256 398.761 484.256C407.209 484.256 409.833 489.76 410.473 492.512L405.161 494.496C404.905 492.896 403.625 489.376 398.761 489.376C395.689 489.376 393.641 491.36 393.641 493.472C393.641 495.328 394.793 496.672 397.161 497.184L402.153 498.272C407.721 499.488 410.665 502.88 410.665 507.424C410.665 511.776 407.017 516.96 399.401 516.96C390.953 516.96 387.369 511.52 386.857 508ZM425.267 516H419.315V485.216H425.267V516ZM417.971 473.568C417.971 471.136 419.891 469.216 422.259 469.216C424.691 469.216 426.611 471.136 426.611 473.568C426.611 475.936 424.691 477.856 422.259 477.856C419.891 477.856 417.971 475.936 417.971 473.568ZM433.902 517.664L439.726 516.32C440.174 520.608 443.438 523.872 448.11 523.872C454.574 523.872 457.518 520.544 457.518 513.888V509.472C456.046 512.288 452.718 514.528 448.11 514.528C439.918 514.528 433.966 508.32 433.966 499.616C433.966 491.296 439.662 484.64 448.11 484.64C452.846 484.64 456.046 486.432 457.582 489.504V485.216H463.534V513.696C463.534 521.504 459.694 529.12 448.11 529.12C440.43 529.12 434.67 524.256 433.902 517.664ZM449.006 509.472C454.19 509.472 457.774 505.568 457.774 499.616C457.774 493.664 454.19 489.76 449.006 489.76C443.694 489.76 440.11 493.664 440.11 499.616C440.11 505.632 443.566 509.472 449.006 509.472ZM479.799 498.208V516H473.783V485.216H479.671V489.632C481.911 485.792 485.559 484.32 489.143 484.32C496.503 484.32 500.151 489.632 500.151 496.48V516H494.135V497.504C494.135 493.216 492.343 489.76 486.967 489.76C482.231 489.76 479.799 493.536 479.799 498.208ZM514.264 497.44H531.096C530.968 493.024 528.088 489.568 522.648 489.568C517.592 489.568 514.52 493.472 514.264 497.44ZM531.992 505.44L537.176 507.232C535.448 512.672 530.52 516.96 523.352 516.96C515.096 516.96 507.864 510.944 507.864 500.512C507.864 490.848 514.84 484.256 522.584 484.256C532.056 484.256 537.368 490.784 537.368 500.384C537.368 501.152 537.304 501.92 537.24 502.304H514.072C514.2 507.808 518.168 511.648 523.352 511.648C528.344 511.648 530.84 508.896 531.992 505.44ZM562.776 484.896V491.296C561.88 491.168 560.984 491.104 560.152 491.104C555.096 491.104 551.704 493.792 551.704 500.576V516H545.688V485.216H551.576V490.592C553.816 485.856 557.656 484.704 560.792 484.704C561.624 484.704 562.456 484.832 562.776 484.896ZM566.948 508L572.388 506.08C572.772 509.28 575.204 511.84 579.556 511.84C582.948 511.84 584.804 509.92 584.804 507.744C584.804 505.824 583.396 504.352 580.836 503.776L575.588 502.624C570.788 501.6 567.908 498.336 567.908 493.984C567.908 488.736 572.836 484.256 578.852 484.256C587.3 484.256 589.924 489.76 590.564 492.512L585.252 494.496C584.996 492.896 583.716 489.376 578.852 489.376C575.78 489.376 573.732 491.36 573.732 493.472C573.732 495.328 574.884 496.672 577.252 497.184L582.244 498.272C587.812 499.488 590.756 502.88 590.756 507.424C590.756 511.776 587.108 516.96 579.492 516.96C571.044 516.96 567.46 511.52 566.948 508ZM660.566 489.824C655.702 489.824 651.222 493.408 651.222 500.576C651.222 507.616 655.638 511.392 660.63 511.392C666.39 511.392 668.502 507.488 669.206 505.056L674.518 507.36C673.046 511.776 668.63 516.96 660.63 516.96C651.67 516.96 645.078 509.92 645.078 500.576C645.078 490.976 651.798 484.256 660.566 484.256C668.758 484.256 672.982 489.376 674.262 494.048L668.822 496.352C668.054 493.344 665.814 489.824 660.566 489.824ZM688.231 497.888V516H682.215V469.664H688.231V488.8C690.471 485.536 694.055 484.32 697.575 484.32C704.935 484.32 708.583 489.632 708.583 496.48V516H702.567V497.504C702.567 493.216 700.775 489.76 695.399 489.76C690.791 489.76 688.359 493.344 688.231 497.888ZM722.696 497.44H739.528C739.4 493.024 736.52 489.568 731.08 489.568C726.024 489.568 722.952 493.472 722.696 497.44ZM740.424 505.44L745.608 507.232C743.88 512.672 738.952 516.96 731.784 516.96C723.528 516.96 716.296 510.944 716.296 500.512C716.296 490.848 723.272 484.256 731.016 484.256C740.488 484.256 745.8 490.784 745.8 500.384C745.8 501.152 745.736 501.92 745.672 502.304H722.504C722.632 507.808 726.6 511.648 731.784 511.648C736.776 511.648 739.272 508.896 740.424 505.44ZM63.136 552.888V571H57.12V524.664H63.136V543.8C65.376 540.536 68.96 539.32 72.48 539.32C79.84 539.32 83.488 544.632 83.488 551.48V571H77.472V552.504C77.472 548.216 75.68 544.76 70.304 544.76C65.696 544.76 63.264 548.344 63.136 552.888ZM91.7775 562.744C91.7775 557.24 95.8095 554.168 101.122 553.4L109.441 552.184C111.298 551.928 111.809 550.968 111.809 549.88C111.809 546.872 109.826 544.376 105.153 544.376C100.929 544.376 98.5615 547 98.1775 550.584L92.4175 549.24C93.0575 543.352 98.3695 539.256 105.025 539.256C114.242 539.256 117.826 544.504 117.826 550.52V565.944C117.826 568.632 118.082 570.232 118.21 571H112.322C112.194 570.232 112.002 569.08 112.002 566.84C110.658 569.016 107.586 571.96 102.082 571.96C95.8095 571.96 91.7775 567.608 91.7775 562.744ZM102.913 566.904C107.842 566.904 111.809 564.536 111.809 557.816V556.408L102.401 557.816C99.8415 558.2 97.9215 559.672 97.9215 562.424C97.9215 564.728 99.8415 566.904 102.913 566.904ZM179.21 540.216L166.922 571H160.842L148.362 540.216H155.146L163.914 563.96L172.746 540.216H179.21ZM197.853 566.584C202.973 566.584 207.453 562.744 207.453 555.576C207.453 548.472 202.973 544.632 197.853 544.632C192.733 544.632 188.253 548.472 188.253 555.576C188.253 562.744 192.733 566.584 197.853 566.584ZM197.853 539.256C207.069 539.256 213.597 546.232 213.597 555.576C213.597 564.984 207.069 571.96 197.853 571.96C188.637 571.96 182.109 564.984 182.109 555.576C182.109 546.232 188.637 539.256 197.853 539.256ZM227.95 571H221.934V524.664H227.95V571ZM258.8 567.288C257.136 570.488 253.296 571.96 249.712 571.96C242.544 571.96 238.192 566.584 238.192 559.608V540.216H244.208V558.712C244.208 562.936 246.128 566.648 251.184 566.648C256.048 566.648 258.48 563.448 258.48 558.776V540.216H264.496V565.304C264.496 567.736 264.688 569.912 264.816 571H259.056C258.928 570.296 258.8 568.568 258.8 567.288ZM283.466 530.488V540.216H290.122V545.656H283.466V561.656C283.466 564.472 284.618 565.88 287.754 565.88C288.522 565.88 289.61 565.752 290.122 565.624V570.744C289.61 570.936 288.074 571.32 286.026 571.32C280.778 571.32 277.45 568.12 277.45 562.552V545.656H271.562V540.216H273.226C276.554 540.216 277.962 538.168 277.962 535.48V530.488H283.466ZM311.663 566.584C316.783 566.584 321.263 562.744 321.263 555.576C321.263 548.472 316.783 544.632 311.663 544.632C306.543 544.632 302.063 548.472 302.063 555.576C302.063 562.744 306.543 566.584 311.663 566.584ZM311.663 539.256C320.879 539.256 327.407 546.232 327.407 555.576C327.407 564.984 320.879 571.96 311.663 571.96C302.447 571.96 295.919 564.984 295.919 555.576C295.919 546.232 302.447 539.256 311.663 539.256ZM377.836 539.896V546.296C376.94 546.168 376.044 546.104 375.212 546.104C370.156 546.104 366.764 548.792 366.764 555.576V571H360.748V540.216H366.636V545.592C368.876 540.856 372.716 539.704 375.852 539.704C376.684 539.704 377.516 539.832 377.836 539.896ZM382.968 562.744C382.968 557.24 387 554.168 392.312 553.4L400.632 552.184C402.488 551.928 403 550.968 403 549.88C403 546.872 401.016 544.376 396.344 544.376C392.12 544.376 389.752 547 389.368 550.584L383.608 549.24C384.248 543.352 389.56 539.256 396.216 539.256C405.432 539.256 409.016 544.504 409.016 550.52V565.944C409.016 568.632 409.272 570.232 409.4 571H403.512C403.384 570.232 403.192 569.08 403.192 566.84C401.848 569.016 398.776 571.96 393.272 571.96C387 571.96 382.968 567.608 382.968 562.744ZM394.104 566.904C399.032 566.904 403 564.536 403 557.816V556.408L393.592 557.816C391.032 558.2 389.112 559.672 389.112 562.424C389.112 564.728 391.032 566.904 394.104 566.904ZM431.956 544.824C427.092 544.824 422.612 548.408 422.612 555.576C422.612 562.616 427.028 566.392 432.02 566.392C437.78 566.392 439.892 562.488 440.596 560.056L445.908 562.36C444.436 566.776 440.02 571.96 432.02 571.96C423.06 571.96 416.468 564.92 416.468 555.576C416.468 545.976 423.188 539.256 431.956 539.256C440.148 539.256 444.372 544.376 445.652 549.048L440.212 551.352C439.444 548.344 437.204 544.824 431.956 544.824ZM466.221 544.824C461.357 544.824 456.877 548.408 456.877 555.576C456.877 562.616 461.293 566.392 466.285 566.392C472.045 566.392 474.157 562.488 474.861 560.056L480.173 562.36C478.701 566.776 474.285 571.96 466.285 571.96C457.325 571.96 450.733 564.92 450.733 555.576C450.733 545.976 457.453 539.256 466.221 539.256C474.413 539.256 478.637 544.376 479.917 549.048L474.477 551.352C473.709 548.344 471.469 544.824 466.221 544.824ZM500.742 566.584C505.862 566.584 510.342 562.744 510.342 555.576C510.342 548.472 505.862 544.632 500.742 544.632C495.622 544.632 491.142 548.472 491.142 555.576C491.142 562.744 495.622 566.584 500.742 566.584ZM500.742 539.256C509.958 539.256 516.486 546.232 516.486 555.576C516.486 564.984 509.958 571.96 500.742 571.96C491.526 571.96 484.998 564.984 484.998 555.576C484.998 546.232 491.526 539.256 500.742 539.256ZM530.839 553.208V571H524.823V540.216H530.711V544.632C532.951 540.792 536.599 539.32 540.183 539.32C547.543 539.32 551.191 544.632 551.191 551.48V571H545.175V552.504C545.175 548.216 543.383 544.76 538.007 544.76C533.271 544.76 530.839 548.536 530.839 553.208ZM569.465 530.488V540.216H576.121V545.656H569.465V561.656C569.465 564.472 570.617 565.88 573.753 565.88C574.521 565.88 575.609 565.752 576.121 565.624V570.744C575.609 570.936 574.073 571.32 572.025 571.32C566.777 571.32 563.449 568.12 563.449 562.552V545.656H557.561V540.216H559.225C562.553 540.216 563.961 538.168 563.961 535.48V530.488H569.465ZM582.871 562.744C582.871 557.24 586.903 554.168 592.215 553.4L600.535 552.184C602.391 551.928 602.903 550.968 602.903 549.88C602.903 546.872 600.919 544.376 596.247 544.376C592.023 544.376 589.655 547 589.271 550.584L583.511 549.24C584.151 543.352 589.463 539.256 596.119 539.256C605.335 539.256 608.919 544.504 608.919 550.52V565.944C608.919 568.632 609.175 570.232 609.303 571H603.415C603.287 570.232 603.095 569.08 603.095 566.84C601.751 569.016 598.679 571.96 593.175 571.96C586.903 571.96 582.871 567.608 582.871 562.744ZM594.007 566.904C598.935 566.904 602.903 564.536 602.903 557.816V556.408L593.495 557.816C590.935 558.2 589.015 559.672 589.015 562.424C589.015 564.728 590.935 566.904 594.007 566.904ZM636.019 539.896V546.296C635.123 546.168 634.227 546.104 633.395 546.104C628.339 546.104 624.947 548.792 624.947 555.576V571H618.931V540.216H624.819V545.592C627.059 540.856 630.899 539.704 634.035 539.704C634.867 539.704 635.699 539.832 636.019 539.896ZM646.662 552.44H663.494C663.366 548.024 660.486 544.568 655.046 544.568C649.99 544.568 646.918 548.472 646.662 552.44ZM664.39 560.44L669.574 562.232C667.846 567.672 662.918 571.96 655.75 571.96C647.494 571.96 640.262 565.944 640.262 555.512C640.262 545.848 647.238 539.256 654.982 539.256C664.454 539.256 669.766 545.784 669.766 555.384C669.766 556.152 669.702 556.92 669.638 557.304H646.47C646.598 562.808 650.566 566.648 655.75 566.648C660.742 566.648 663.238 563.896 664.39 560.44ZM709.106 571H703.09V524.664H709.106V571ZM718.06 562.744C718.06 557.24 722.092 554.168 727.404 553.4L735.724 552.184C737.58 551.928 738.092 550.968 738.092 549.88C738.092 546.872 736.108 544.376 731.436 544.376C727.212 544.376 724.844 547 724.46 550.584L718.7 549.24C719.34 543.352 724.652 539.256 731.308 539.256C740.524 539.256 744.108 544.504 744.108 550.52V565.944C744.108 568.632 744.364 570.232 744.492 571H738.604C738.476 570.232 738.284 569.08 738.284 566.84C736.94 569.016 733.868 571.96 728.364 571.96C722.092 571.96 718.06 567.608 718.06 562.744ZM729.196 566.904C734.124 566.904 738.092 564.536 738.092 557.816V556.408L728.684 557.816C726.124 558.2 724.204 559.672 724.204 562.424C724.204 564.728 726.124 566.904 729.196 566.904ZM74.208 594.896V601.296C73.312 601.168 72.416 601.104 71.584 601.104C66.528 601.104 63.136 603.792 63.136 610.576V626H57.12V595.216H63.008V600.592C65.248 595.856 69.088 594.704 72.224 594.704C73.056 594.704 73.888 594.832 74.208 594.896ZM84.8515 607.44H101.684C101.556 603.024 98.6755 599.568 93.2355 599.568C88.1795 599.568 85.1075 603.472 84.8515 607.44ZM102.58 615.44L107.764 617.232C106.036 622.672 101.108 626.96 93.9395 626.96C85.6835 626.96 78.4515 620.944 78.4515 610.512C78.4515 600.848 85.4275 594.256 93.1715 594.256C102.644 594.256 107.956 600.784 107.956 610.384C107.956 611.152 107.892 611.92 107.827 612.304H84.6595C84.7875 617.808 88.7555 621.648 93.9395 621.648C98.9315 621.648 101.427 618.896 102.58 615.44ZM114.355 617.744C114.355 612.24 118.387 609.168 123.699 608.4L132.019 607.184C133.875 606.928 134.387 605.968 134.387 604.88C134.387 601.872 132.403 599.376 127.731 599.376C123.507 599.376 121.139 602 120.755 605.584L114.995 604.24C115.635 598.352 120.947 594.256 127.603 594.256C136.819 594.256 140.403 599.504 140.403 605.52V620.944C140.403 623.632 140.659 625.232 140.787 626H134.899C134.771 625.232 134.579 624.08 134.579 621.84C133.235 624.016 130.163 626.96 124.659 626.96C118.387 626.96 114.355 622.608 114.355 617.744ZM125.491 621.904C130.419 621.904 134.387 619.536 134.387 612.816V611.408L124.979 612.816C122.419 613.2 120.499 614.672 120.499 617.424C120.499 619.728 122.419 621.904 125.491 621.904ZM156.431 626H150.415V579.664H156.431V626ZM175.369 585.488V595.216H182.025V600.656H175.369V616.656C175.369 619.472 176.521 620.88 179.657 620.88C180.425 620.88 181.513 620.752 182.025 620.624V625.744C181.513 625.936 179.977 626.32 177.929 626.32C172.681 626.32 169.353 623.12 169.353 617.552V600.656H163.465V595.216H165.129C168.457 595.216 169.865 593.168 169.865 590.48V585.488H175.369ZM188.775 617.744C188.775 612.24 192.807 609.168 198.119 608.4L206.439 607.184C208.295 606.928 208.807 605.968 208.807 604.88C208.807 601.872 206.823 599.376 202.151 599.376C197.927 599.376 195.559 602 195.175 605.584L189.415 604.24C190.055 598.352 195.367 594.256 202.023 594.256C211.239 594.256 214.823 599.504 214.823 605.52V620.944C214.823 623.632 215.079 625.232 215.207 626H209.319C209.191 625.232 208.999 624.08 208.999 621.84C207.655 624.016 204.583 626.96 199.079 626.96C192.807 626.96 188.775 622.608 188.775 617.744ZM199.911 621.904C204.839 621.904 208.807 619.536 208.807 612.816V611.408L199.399 612.816C196.839 613.2 194.919 614.672 194.919 617.424C194.919 619.728 196.839 621.904 199.911 621.904ZM200.615 591.248L192.551 581.904H200.103L205.607 591.248H200.615ZM255.46 610.512C255.46 616.848 258.724 621.52 264.484 621.52C269.988 621.52 273.38 616.72 273.38 610.384C273.38 604.048 270.052 599.696 264.548 599.696C259.044 599.696 255.46 604.176 255.46 610.512ZM273.444 621.84V621.328C271.972 624.272 268.708 626.832 263.908 626.832C254.884 626.832 249.316 619.664 249.316 610.512C249.316 601.808 255.204 594.384 263.908 594.384C269.348 594.384 272.292 597.072 273.316 599.568V579.664H279.268V620.304C279.268 623.248 279.524 625.488 279.588 626H273.764C273.636 625.296 273.444 623.696 273.444 621.84ZM294.045 607.44H310.877C310.749 603.024 307.869 599.568 302.429 599.568C297.373 599.568 294.301 603.472 294.045 607.44ZM311.773 615.44L316.957 617.232C315.229 622.672 310.301 626.96 303.133 626.96C294.877 626.96 287.645 620.944 287.645 610.512C287.645 600.848 294.621 594.256 302.365 594.256C311.837 594.256 317.149 600.784 317.149 610.384C317.149 611.152 317.085 611.92 317.021 612.304H293.853C293.981 617.808 297.949 621.648 303.133 621.648C308.125 621.648 310.621 618.896 311.773 615.44ZM331.484 626H325.468V579.664H331.484V626ZM382.327 599.824C377.463 599.824 372.983 603.408 372.983 610.576C372.983 617.616 377.399 621.392 382.391 621.392C388.151 621.392 390.263 617.488 390.967 615.056L396.279 617.36C394.807 621.776 390.391 626.96 382.391 626.96C373.431 626.96 366.839 619.92 366.839 610.576C366.839 600.976 373.559 594.256 382.327 594.256C390.519 594.256 394.743 599.376 396.023 604.048L390.583 606.352C389.815 603.344 387.575 599.824 382.327 599.824ZM401.744 617.744C401.744 612.24 405.776 609.168 411.088 608.4L419.408 607.184C421.264 606.928 421.776 605.968 421.776 604.88C421.776 601.872 419.792 599.376 415.12 599.376C410.896 599.376 408.528 602 408.144 605.584L402.384 604.24C403.024 598.352 408.336 594.256 414.992 594.256C424.208 594.256 427.792 599.504 427.792 605.52V620.944C427.792 623.632 428.048 625.232 428.176 626H422.288C422.16 625.232 421.968 624.08 421.968 621.84C420.624 624.016 417.552 626.96 412.048 626.96C405.776 626.96 401.744 622.608 401.744 617.744ZM412.88 621.904C417.808 621.904 421.776 619.536 421.776 612.816V611.408L412.368 612.816C409.808 613.2 407.888 614.672 407.888 617.424C407.888 619.728 409.808 621.904 412.88 621.904ZM454.892 594.896V601.296C453.996 601.168 453.1 601.104 452.268 601.104C447.212 601.104 443.82 603.792 443.82 610.576V626H437.804V595.216H443.692V600.592C445.932 595.856 449.772 594.704 452.908 594.704C453.74 594.704 454.572 594.832 454.892 594.896ZM474.56 599.824C469.696 599.824 465.216 603.408 465.216 610.576C465.216 617.616 469.632 621.392 474.624 621.392C480.384 621.392 482.496 617.488 483.2 615.056L488.512 617.36C487.04 621.776 482.624 626.96 474.624 626.96C465.664 626.96 459.072 619.92 459.072 610.576C459.072 600.976 465.792 594.256 474.56 594.256C482.752 594.256 486.976 599.376 488.256 604.048L482.816 606.352C482.048 603.344 479.808 599.824 474.56 599.824ZM499.801 607.44H516.633C516.505 603.024 513.625 599.568 508.185 599.568C503.129 599.568 500.057 603.472 499.801 607.44ZM517.529 615.44L522.713 617.232C520.985 622.672 516.057 626.96 508.889 626.96C500.633 626.96 493.401 620.944 493.401 610.512C493.401 600.848 500.377 594.256 508.121 594.256C517.593 594.256 522.905 600.784 522.905 610.384C522.905 611.152 522.841 611.92 522.777 612.304H499.609C499.737 617.808 503.705 621.648 508.889 621.648C513.881 621.648 516.377 618.896 517.529 615.44ZM548.312 594.896V601.296C547.416 601.168 546.52 601.104 545.688 601.104C540.632 601.104 537.24 603.792 537.24 610.576V626H531.224V595.216H537.112V600.592C539.352 595.856 543.192 594.704 546.328 594.704C547.16 594.704 547.992 594.832 548.312 594.896ZM558.956 607.44H575.788C575.66 603.024 572.78 599.568 567.34 599.568C562.284 599.568 559.212 603.472 558.956 607.44ZM576.684 615.44L581.868 617.232C580.14 622.672 575.212 626.96 568.044 626.96C559.788 626.96 552.556 620.944 552.556 610.512C552.556 600.848 559.532 594.256 567.276 594.256C576.748 594.256 582.06 600.784 582.06 610.384C582.06 611.152 581.996 611.92 581.932 612.304H558.764C558.892 617.808 562.86 621.648 568.044 621.648C573.036 621.648 575.532 618.896 576.684 615.44ZM643.788 595.216L631.5 626H625.42L612.94 595.216H619.724L628.492 618.96L637.324 595.216H643.788ZM656.137 626H650.185V595.216H656.137V626ZM648.841 583.568C648.841 581.136 650.761 579.216 653.129 579.216C655.561 579.216 657.481 581.136 657.481 583.568C657.481 585.936 655.561 587.856 653.129 587.856C650.761 587.856 648.841 585.936 648.841 583.568ZM664.133 618L669.573 616.08C669.957 619.28 672.389 621.84 676.741 621.84C680.133 621.84 681.989 619.92 681.989 617.744C681.989 615.824 680.581 614.352 678.021 613.776L672.773 612.624C667.973 611.6 665.093 608.336 665.093 603.984C665.093 598.736 670.021 594.256 676.037 594.256C684.485 594.256 687.109 599.76 687.749 602.512L682.437 604.496C682.181 602.896 680.901 599.376 676.037 599.376C672.965 599.376 670.917 601.36 670.917 603.472C670.917 605.328 672.069 606.672 674.437 607.184L679.429 608.272C684.997 609.488 687.941 612.88 687.941 617.424C687.941 621.776 684.293 626.96 676.677 626.96C668.229 626.96 664.645 621.52 664.133 618ZM704.654 585.488V595.216H711.31V600.656H704.654V616.656C704.654 619.472 705.806 620.88 708.942 620.88C709.71 620.88 710.798 620.752 711.31 620.624V625.744C710.798 625.936 709.262 626.32 707.214 626.32C701.966 626.32 698.638 623.12 698.638 617.552V600.656H692.75V595.216H694.414C697.742 595.216 699.15 593.168 699.15 590.48V585.488H704.654ZM718.06 617.744C718.06 612.24 722.092 609.168 727.404 608.4L735.724 607.184C737.58 606.928 738.092 605.968 738.092 604.88C738.092 601.872 736.108 599.376 731.436 599.376C727.212 599.376 724.844 602 724.46 605.584L718.7 604.24C719.34 598.352 724.652 594.256 731.308 594.256C740.524 594.256 744.108 599.504 744.108 605.52V620.944C744.108 623.632 744.364 625.232 744.492 626H738.604C738.476 625.232 738.284 624.08 738.284 621.84C736.94 624.016 733.868 626.96 728.364 626.96C722.092 626.96 718.06 622.608 718.06 617.744ZM729.196 621.904C734.124 621.904 738.092 619.536 738.092 612.816V611.408L728.684 612.816C726.124 613.2 724.204 614.672 724.204 617.424C724.204 619.728 726.124 621.904 729.196 621.904ZM60.704 665.512C60.704 671.848 63.968 676.52 69.728 676.52C75.232 676.52 78.624 671.72 78.624 665.384C78.624 659.048 75.296 654.696 69.792 654.696C64.288 654.696 60.704 659.176 60.704 665.512ZM78.688 676.84V676.328C77.216 679.272 73.952 681.832 69.152 681.832C60.128 681.832 54.56 674.664 54.56 665.512C54.56 656.808 60.448 649.384 69.152 649.384C74.592 649.384 77.536 652.072 78.56 654.568V634.664H84.512V675.304C84.512 678.248 84.768 680.488 84.832 681H79.008C78.88 680.296 78.688 678.696 78.688 676.84ZM93.465 672.744C93.465 667.24 97.497 664.168 102.809 663.4L111.129 662.184C112.985 661.928 113.497 660.968 113.497 659.88C113.497 656.872 111.513 654.376 106.841 654.376C102.617 654.376 100.249 657 99.865 660.584L94.105 659.24C94.745 653.352 100.057 649.256 106.713 649.256C115.929 649.256 119.513 654.504 119.513 660.52V675.944C119.513 678.632 119.769 680.232 119.897 681H114.009C113.881 680.232 113.689 679.08 113.689 676.84C112.345 679.016 109.273 681.96 103.769 681.96C97.497 681.96 93.465 677.608 93.465 672.744ZM104.601 676.904C109.529 676.904 113.497 674.536 113.497 667.816V666.408L104.089 667.816C101.529 668.2 99.609 669.672 99.609 672.424C99.609 674.728 101.529 676.904 104.601 676.904ZM135.477 681H129.525V650.216H135.477V681ZM128.181 638.568C128.181 636.136 130.101 634.216 132.469 634.216C134.901 634.216 136.821 636.136 136.821 638.568C136.821 640.936 134.901 642.856 132.469 642.856C130.101 642.856 128.181 640.936 128.181 638.568ZM169.008 663.208V681H162.992V650.216H168.88V654.632C171.12 650.792 174.768 649.32 178.352 649.32C185.712 649.32 189.36 654.632 189.36 661.48V681H183.344V662.504C183.344 658.216 181.552 654.76 176.176 654.76C171.44 654.76 169.008 658.536 169.008 663.208ZM212.754 676.584C217.874 676.584 222.354 672.744 222.354 665.576C222.354 658.472 217.874 654.632 212.754 654.632C207.634 654.632 203.154 658.472 203.154 665.576C203.154 672.744 207.634 676.584 212.754 676.584ZM212.754 649.256C221.97 649.256 228.498 656.232 228.498 665.576C228.498 674.984 221.97 681.96 212.754 681.96C203.538 681.96 197.01 674.984 197.01 665.576C197.01 656.232 203.538 649.256 212.754 649.256ZM233.955 673L239.395 671.08C239.779 674.28 242.211 676.84 246.563 676.84C249.955 676.84 251.811 674.92 251.811 672.744C251.811 670.824 250.403 669.352 247.843 668.776L242.595 667.624C237.795 666.6 234.915 663.336 234.915 658.984C234.915 653.736 239.843 649.256 245.859 649.256C254.307 649.256 256.931 654.76 257.571 657.512L252.259 659.496C252.003 657.896 250.723 654.376 245.859 654.376C242.787 654.376 240.739 656.36 240.739 658.472C240.739 660.328 241.891 661.672 244.259 662.184L249.251 663.272C254.819 664.488 257.763 667.88 257.763 672.424C257.763 676.776 254.115 681.96 246.499 681.96C238.051 681.96 234.467 676.52 233.955 673ZM274.476 640.488V650.216H281.132V655.656H274.476V671.656C274.476 674.472 275.628 675.88 278.764 675.88C279.532 675.88 280.62 675.752 281.132 675.624V680.744C280.62 680.936 279.084 681.32 277.036 681.32C271.788 681.32 268.46 678.12 268.46 672.552V655.656H262.572V650.216H264.236C267.564 650.216 268.972 648.168 268.972 645.48V640.488H274.476ZM306.265 649.896V656.296C305.369 656.168 304.473 656.104 303.641 656.104C298.585 656.104 295.193 658.792 295.193 665.576V681H289.177V650.216H295.065V655.592C297.305 650.856 301.145 649.704 304.281 649.704C305.113 649.704 305.945 649.832 306.265 649.896ZM319.27 681H313.318V650.216H319.27V681ZM311.974 638.568C311.974 636.136 313.894 634.216 316.262 634.216C318.694 634.216 320.614 636.136 320.614 638.568C320.614 640.936 318.694 642.856 316.262 642.856C313.894 642.856 311.974 640.936 311.974 638.568ZM359.969 676.584C365.089 676.584 369.569 672.744 369.569 665.576C369.569 658.472 365.089 654.632 359.969 654.632C354.849 654.632 350.369 658.472 350.369 665.576C350.369 672.744 354.849 676.584 359.969 676.584ZM359.969 649.256C369.185 649.256 375.713 656.232 375.713 665.576C375.713 674.984 369.185 681.96 359.969 681.96C350.753 681.96 344.225 674.984 344.225 665.576C344.225 656.232 350.753 649.256 359.969 649.256ZM396.978 654.824C392.114 654.824 387.634 658.408 387.634 665.576C387.634 672.616 392.05 676.392 397.042 676.392C402.802 676.392 404.914 672.488 405.618 670.056L410.93 672.36C409.458 676.776 405.042 681.96 397.042 681.96C388.082 681.96 381.49 674.92 381.49 665.576C381.49 655.976 388.21 649.256 396.978 649.256C405.17 649.256 409.394 654.376 410.674 659.048L405.234 661.352C404.466 658.344 402.226 654.824 396.978 654.824ZM431.243 654.824C426.379 654.824 421.899 658.408 421.899 665.576C421.899 672.616 426.315 676.392 431.307 676.392C437.067 676.392 439.179 672.488 439.883 670.056L445.195 672.36C443.723 676.776 439.307 681.96 431.307 681.96C422.347 681.96 415.755 674.92 415.755 665.576C415.755 655.976 422.475 649.256 431.243 649.256C439.435 649.256 443.659 654.376 444.939 659.048L439.499 661.352C438.731 658.344 436.491 654.824 431.243 654.824ZM458.908 662.888V681H452.892V634.664H458.908V653.8C461.148 650.536 464.732 649.32 468.252 649.32C475.612 649.32 479.26 654.632 479.26 661.48V681H473.244V662.504C473.244 658.216 471.452 654.76 466.076 654.76C461.468 654.76 459.036 658.344 458.908 662.888ZM495.422 681H489.47V650.216H495.422V681ZM488.126 638.568C488.126 636.136 490.046 634.216 492.414 634.216C494.846 634.216 496.766 636.136 496.766 638.568C496.766 640.936 494.846 642.856 492.414 642.856C490.046 642.856 488.126 640.936 488.126 638.568Z" fill="#FFFBF1"/>
<path d="M74.6 749.4C74.6 750.493 74.3867 751.533 73.96 752.52C73.56 753.48 72.92 754.32 72.04 755.04C71.16 755.76 70.04 756.333 68.68 756.76C67.32 757.187 65.6933 757.4 63.8 757.4C62.0933 757.4 60.5467 757.2 59.16 756.8C57.8 756.4 56.6267 755.813 55.64 755.04C54.68 754.267 53.9333 753.307 53.4 752.16C52.8667 751.013 52.6 749.693 52.6 748.2L53 747.8H56.2L56.6 748.2C56.6 750.2 57.2533 751.64 58.56 752.52C59.8933 753.373 61.7733 753.8 64.2 753.8C65.1067 753.8 65.9467 753.72 66.72 753.56C67.4933 753.4 68.16 753.147 68.72 752.8C69.3067 752.453 69.76 752 70.08 751.44C70.4267 750.88 70.6 750.2 70.6 749.4C70.6 748.493 70.44 747.76 70.12 747.2C69.8267 746.613 69.3467 746.133 68.68 745.76C68.04 745.387 67.2133 745.093 66.2 744.88C65.1867 744.64 63.9867 744.413 62.6 744.2C59.8 743.8 57.56 742.973 55.88 741.72C54.2267 740.44 53.4 738.6 53.4 736.2C53.4 735.293 53.5733 734.387 53.92 733.48C54.2933 732.573 54.88 731.76 55.68 731.04C56.48 730.32 57.5067 729.733 58.76 729.28C60.04 728.827 61.5867 728.6 63.4 728.6C64.8933 728.6 66.28 728.76 67.56 729.08C68.84 729.373 69.9333 729.867 70.84 730.56C71.7733 731.227 72.4933 732.093 73 733.16C73.5333 734.227 73.8 735.507 73.8 737L73.4 737.4H70.2L69.8 737C69.8 736.2 69.68 735.507 69.44 734.92C69.2267 734.307 68.8533 733.8 68.32 733.4C67.8133 733 67.12 732.707 66.24 732.52C65.3867 732.307 64.3067 732.2 63 732.2C61.1867 732.2 59.8 732.573 58.84 733.32C57.88 734.04 57.4 735 57.4 736.2C57.4 737 57.5333 737.667 57.8 738.2C58.0667 738.707 58.4933 739.147 59.08 739.52C59.6933 739.867 60.48 740.16 61.44 740.4C62.4 740.613 63.5867 740.813 65 741C66.3867 741.213 67.6667 741.507 68.84 741.88C70.04 742.253 71.0533 742.76 71.88 743.4C72.7333 744.04 73.4 744.853 73.88 745.84C74.36 746.827 74.6 748.013 74.6 749.4ZM81.3953 747C81.3953 749.213 81.8753 750.907 82.8353 752.08C83.7953 753.227 85.182 753.8 86.9953 753.8C87.7953 753.8 88.4753 753.707 89.0353 753.52C89.5953 753.333 90.062 753.093 90.4353 752.8C90.8086 752.507 91.102 752.173 91.3153 751.8C91.5286 751.4 91.6886 751 91.7953 750.6L92.1953 750.2H95.3953L95.7953 750.6C95.6886 751.507 95.4353 752.373 95.0353 753.2C94.6353 754 94.0753 754.72 93.3553 755.36C92.6353 755.973 91.742 756.467 90.6753 756.84C89.6086 757.213 88.382 757.4 86.9953 757.4C85.502 757.4 84.1553 757.16 82.9553 756.68C81.782 756.2 80.782 755.507 79.9553 754.6C79.1286 753.693 78.4886 752.6 78.0353 751.32C77.6086 750.04 77.3953 748.6 77.3953 747C77.3953 745.4 77.6086 743.96 78.0353 742.68C78.4886 741.4 79.1286 740.307 79.9553 739.4C80.782 738.493 81.782 737.8 82.9553 737.32C84.1553 736.84 85.502 736.6 86.9953 736.6C88.382 736.6 89.6086 736.787 90.6753 737.16C91.742 737.533 92.6353 738.04 93.3553 738.68C94.0753 739.293 94.6353 740.013 95.0353 740.84C95.4353 741.64 95.6886 742.493 95.7953 743.4L95.3953 743.8H92.1953L91.7953 743.4C91.6886 743 91.5286 742.613 91.3153 742.24C91.102 741.84 90.8086 741.493 90.4353 741.2C90.062 740.907 89.5953 740.667 89.0353 740.48C88.4753 740.293 87.7953 740.2 86.9953 740.2C85.182 740.2 83.7953 740.787 82.8353 741.96C81.8753 743.107 81.3953 744.787 81.3953 747ZM98.1766 747C98.1766 745.4 98.3899 743.96 98.8166 742.68C99.2699 741.4 99.9099 740.307 100.737 739.4C101.563 738.493 102.563 737.8 103.737 737.32C104.937 736.84 106.283 736.6 107.777 736.6C109.27 736.6 110.603 736.84 111.777 737.32C112.977 737.8 113.99 738.493 114.817 739.4C115.643 740.307 116.27 741.4 116.697 742.68C117.15 743.96 117.377 745.4 117.377 747C117.377 748.6 117.15 750.04 116.697 751.32C116.27 752.6 115.643 753.693 114.817 754.6C113.99 755.507 112.977 756.2 111.777 756.68C110.603 757.16 109.27 757.4 107.777 757.4C106.283 757.4 104.937 757.16 103.737 756.68C102.563 756.2 101.563 755.507 100.737 754.6C99.9099 753.693 99.2699 752.6 98.8166 751.32C98.3899 750.04 98.1766 748.6 98.1766 747ZM102.177 747C102.177 749.213 102.657 750.907 103.617 752.08C104.577 753.227 105.963 753.8 107.777 753.8C109.59 753.8 110.977 753.227 111.937 752.08C112.897 750.907 113.377 749.213 113.377 747C113.377 744.787 112.897 743.107 111.937 741.96C110.977 740.787 109.59 740.2 107.777 740.2C105.963 740.2 104.577 740.787 103.617 741.96C102.657 743.107 102.177 744.787 102.177 747ZM139.378 747C139.378 748.493 139.178 749.88 138.778 751.16C138.405 752.44 137.831 753.547 137.058 754.48C136.311 755.387 135.391 756.107 134.298 756.64C133.205 757.147 131.965 757.4 130.578 757.4C129.671 757.4 128.885 757.267 128.218 757C127.578 756.76 127.045 756.493 126.618 756.2C126.165 755.853 125.751 755.453 125.378 755H124.978V764.6L124.578 765H121.378L120.978 764.6V737.4L121.378 737H124.178L124.578 737.4L124.978 739H125.378C125.965 738.227 126.711 737.64 127.618 737.24C128.525 736.813 129.511 736.6 130.578 736.6C131.965 736.6 133.205 736.867 134.298 737.4C135.391 737.907 136.311 738.627 137.058 739.56C137.831 740.467 138.405 741.56 138.778 742.84C139.178 744.12 139.378 745.507 139.378 747ZM135.378 747C135.378 744.76 134.911 743.067 133.978 741.92C133.045 740.773 131.778 740.2 130.178 740.2C128.578 740.2 127.311 740.733 126.378 741.8C125.445 742.867 124.978 744.6 124.978 747C124.978 749.4 125.445 751.133 126.378 752.2C127.311 753.267 128.578 753.8 130.178 753.8C131.778 753.8 133.045 753.227 133.978 752.08C134.911 750.933 135.378 749.24 135.378 747ZM154.17 740.6H152.17C151.37 740.6 150.65 740.693 150.01 740.88C149.37 741.04 148.824 741.347 148.37 741.8C147.917 742.253 147.57 742.867 147.33 743.64C147.09 744.413 146.97 745.4 146.97 746.6V756.6L146.57 757H143.37L142.97 756.6V737.4L143.37 737H146.17L146.57 737.4L146.97 739H147.37C147.664 738.707 147.97 738.44 148.29 738.2C148.61 737.933 148.97 737.72 149.37 737.56C149.77 737.373 150.224 737.24 150.73 737.16C151.264 737.053 151.877 737 152.57 737H154.17L154.57 737.4V740.2L154.17 740.6ZM161.375 733.8H158.175L157.775 733.4V730.2L158.175 729.8H161.375L161.775 730.2V733.4L161.375 733.8ZM161.375 757H158.175L157.775 756.6V737.4L158.175 737H161.375L161.775 737.4V756.6L161.375 757ZM169.364 747C169.364 749.213 169.844 750.907 170.804 752.08C171.764 753.227 173.151 753.8 174.964 753.8C175.764 753.8 176.444 753.707 177.004 753.52C177.564 753.333 178.031 753.093 178.404 752.8C178.777 752.507 179.071 752.173 179.284 751.8C179.497 751.4 179.657 751 179.764 750.6L180.164 750.2H183.364L183.764 750.6C183.657 751.507 183.404 752.373 183.004 753.2C182.604 754 182.044 754.72 181.324 755.36C180.604 755.973 179.711 756.467 178.644 756.84C177.577 757.213 176.351 757.4 174.964 757.4C173.471 757.4 172.124 757.16 170.924 756.68C169.751 756.2 168.751 755.507 167.924 754.6C167.097 753.693 166.457 752.6 166.004 751.32C165.577 750.04 165.364 748.6 165.364 747C165.364 745.4 165.577 743.96 166.004 742.68C166.457 741.4 167.097 740.307 167.924 739.4C168.751 738.493 169.751 737.8 170.924 737.32C172.124 736.84 173.471 736.6 174.964 736.6C176.351 736.6 177.577 736.787 178.644 737.16C179.711 737.533 180.604 738.04 181.324 738.68C182.044 739.293 182.604 740.013 183.004 740.84C183.404 741.64 183.657 742.493 183.764 743.4L183.364 743.8H180.164L179.764 743.4C179.657 743 179.497 742.613 179.284 742.24C179.071 741.84 178.777 741.493 178.404 741.2C178.031 740.907 177.564 740.667 177.004 740.48C176.444 740.293 175.764 740.2 174.964 740.2C173.151 740.2 171.764 740.787 170.804 741.96C169.844 743.107 169.364 744.787 169.364 747ZM190.945 733.8H187.745L187.345 733.4V730.2L187.745 729.8H190.945L191.345 730.2V733.4L190.945 733.8ZM190.945 757H187.745L187.345 756.6V737.4L187.745 737H190.945L191.345 737.4V756.6L190.945 757Z" fill="#FFFBF1"/>
<path d="M55 768L191 768" stroke="#FF5361" stroke-width="4"/>
<path d="M1029.28 667.58C1006.57 771.645 912.533 850.116 778.269 892.635C644.051 935.14 469.936 941.593 287.768 901.828C105.599 862.062 -49.9876 783.639 -154.284 689.068C-258.616 594.466 -311.396 483.947 -288.68 379.882C-265.964 275.817 -171.929 197.347 -37.665 154.827C96.554 112.322 270.668 105.869 452.837 145.635C635.005 185.4 790.592 263.824 894.889 358.394C999.22 452.997 1052 563.516 1029.28 667.58Z" stroke="#FFFBF1" stroke-width="3"/>
</svg>
