<svg width="899" height="885" viewBox="0 0 899 885" fill="none" xmlns="http://www.w3.org/2000/svg">
<path d="M370.245 440H360.617L359.413 438.796V381.027H358.21L334.139 438.796L332.936 440H322.104L320.9 438.796L296.829 381.027H295.626V438.796L294.422 440H284.794L283.59 438.796V356.956L284.794 355.752H298.033L299.236 356.956L326.918 424.354H328.121L355.803 356.956L357.006 355.752H370.245L371.449 356.956V438.796L370.245 440ZM385.849 397.876C385.849 391.537 386.732 385.72 388.497 380.425C390.262 375.129 392.83 370.556 396.199 366.704C399.569 362.853 403.702 359.884 408.596 357.798C413.571 355.632 419.227 354.549 425.566 354.549C431.904 354.549 437.521 355.632 442.415 357.798C447.39 359.884 451.562 362.853 454.932 366.704C458.302 370.556 460.87 375.129 462.635 380.425C464.4 385.72 465.283 391.537 465.283 397.876C465.283 404.215 464.4 410.032 462.635 415.327C460.87 420.623 458.302 425.196 454.932 429.048C451.562 432.899 447.39 435.908 442.415 438.074C437.521 440.16 431.904 441.204 425.566 441.204C419.227 441.204 413.571 440.16 408.596 438.074C403.702 435.908 399.569 432.899 396.199 429.048C392.83 425.196 390.262 420.623 388.497 415.327C386.732 410.032 385.849 404.215 385.849 397.876ZM397.884 397.876C397.884 402.69 398.486 407.103 399.69 411.115C400.893 415.047 402.658 418.457 404.985 421.345C407.312 424.234 410.201 426.48 413.651 428.085C417.101 429.609 421.073 430.372 425.566 430.372C430.059 430.372 434.031 429.609 437.481 428.085C440.931 426.48 443.82 424.234 446.146 421.345C448.473 418.457 450.238 415.047 451.442 411.115C452.645 407.103 453.247 402.69 453.247 397.876C453.247 393.062 452.645 388.689 451.442 384.758C450.238 380.746 448.473 377.296 446.146 374.407C443.82 371.519 440.931 369.312 437.481 367.788C434.031 366.183 430.059 365.381 425.566 365.381C421.073 365.381 417.101 366.183 413.651 367.788C410.201 369.312 407.312 371.519 404.985 374.407C402.658 377.296 400.893 380.746 399.69 384.758C398.486 388.689 397.884 393.062 397.884 397.876ZM566.408 440H556.78L555.576 438.796V381.027H554.373L530.302 438.796L529.098 440H518.267L517.063 438.796L492.992 381.027H491.789V438.796L490.585 440H480.957L479.753 438.796V356.956L480.957 355.752H494.196L495.399 356.956L523.081 424.354H524.284L551.966 356.956L553.169 355.752H566.408L567.612 356.956V438.796L566.408 440ZM642.189 440H588.03L586.826 438.796V356.956L588.03 355.752H642.189L643.392 356.956V365.381L642.189 366.584H600.065L598.861 367.788V390.655L600.065 391.858H639.782L640.985 393.062V401.487L639.782 402.69H600.065L598.861 403.894V427.965L600.065 429.168H642.189L643.392 430.372V438.796L642.189 440ZM727.683 440H716.851L714.444 438.796L673.523 376.212H672.32V438.796L671.116 440H661.488L660.284 438.796V356.956L661.488 355.752H672.32L674.727 356.956L715.647 419.54H716.851V356.956L718.054 355.752H727.683L728.886 356.956V438.796L727.683 440ZM807.173 366.584H781.898L780.695 367.788V438.796L779.491 440H769.863L768.659 438.796V367.788L767.456 366.584H742.181L740.978 365.381V356.956L742.181 355.752H807.173L808.376 356.956V365.381L807.173 366.584ZM831.196 440H821.568L820.365 438.796V356.956L821.568 355.752H831.196L832.4 356.956V438.796L831.196 440Z" fill="#FFFBF1"/>
<path d="M99.9439 502.876C99.9439 509.215 99.2619 514.992 97.8978 520.207C96.6141 525.342 94.4076 529.755 91.2784 533.446C88.2294 537.137 84.1775 539.985 79.1226 541.991C74.0678 543.997 67.7692 545 60.227 545H34.9527L33.7492 543.796V461.956L34.9527 460.752H60.227C67.7692 460.752 74.0678 461.755 79.1226 463.761C84.1775 465.767 88.2294 468.615 91.2784 472.306C94.4076 475.997 96.6141 480.45 97.8978 485.665C99.2619 490.801 99.9439 496.537 99.9439 502.876ZM87.9085 502.876C87.9085 497.741 87.4672 493.248 86.5846 489.396C85.702 485.465 84.1775 482.175 82.0111 479.527C79.8447 476.88 76.876 474.914 73.1049 473.63C69.4141 472.266 64.7203 471.584 59.0235 471.584H46.9881L45.7846 472.788V532.965L46.9881 534.168H59.0235C64.7203 534.168 69.4141 533.526 73.1049 532.242C76.876 530.878 79.8447 528.873 82.0111 526.225C84.1775 523.577 85.702 520.327 86.5846 516.476C87.4672 512.545 87.9085 508.011 87.9085 502.876ZM169.74 545H115.58L114.377 543.796V461.956L115.58 460.752H169.74L170.943 461.956V470.381L169.74 471.584H127.616L126.412 472.788V495.655L127.616 496.858H167.333L168.536 498.062V506.487L167.333 507.69H127.616L126.412 508.894V532.965L127.616 534.168H169.74L170.943 535.372V543.796L169.74 545ZM240.791 545H189.039L187.835 543.796V461.956L189.039 460.752H198.667L199.871 461.956V532.965L201.074 534.168H240.791L241.994 535.372V543.796L240.791 545ZM347.939 502.876C347.939 509.215 347.257 514.992 345.893 520.207C344.609 525.342 342.403 529.755 339.273 533.446C336.224 537.137 332.173 539.985 327.118 541.991C322.063 543.997 315.764 545 308.222 545H282.948L281.744 543.796V461.956L282.948 460.752H308.222C315.764 460.752 322.063 461.755 327.118 463.761C332.173 465.767 336.224 468.615 339.273 472.306C342.403 475.997 344.609 480.45 345.893 485.665C347.257 490.801 347.939 496.537 347.939 502.876ZM335.903 502.876C335.903 497.741 335.462 493.248 334.58 489.396C333.697 485.465 332.173 482.175 330.006 479.527C327.84 476.88 324.871 474.914 321.1 473.63C317.409 472.266 312.715 471.584 307.019 471.584H294.983L293.78 472.788V532.965L294.983 534.168H307.019C312.715 534.168 317.409 533.526 321.1 532.242C324.871 530.878 327.84 528.873 330.006 526.225C332.173 523.577 333.697 520.327 334.58 516.476C335.462 512.545 335.903 508.011 335.903 502.876ZM417.735 545H363.576L362.372 543.796V461.956L363.576 460.752H417.735L418.938 461.956V470.381L417.735 471.584H375.611L374.407 472.788V495.655L375.611 496.858H415.328L416.531 498.062V506.487L415.328 507.69H375.611L374.407 508.894V532.965L375.611 534.168H417.735L418.938 535.372V543.796L417.735 545ZM503.228 545H492.397L489.99 543.796L449.069 481.212H447.866V543.796L446.662 545H437.034L435.83 543.796V461.956L437.034 460.752H447.866L450.273 461.956L491.193 524.54H492.397V461.956L493.6 460.752H503.228L504.432 461.956V543.796L503.228 545ZM582.719 471.584H557.444L556.241 472.788V543.796L555.037 545H545.409L544.205 543.796V472.788L543.002 471.584H517.727L516.524 470.381V461.956L517.727 460.752H582.719L583.922 461.956V470.381L582.719 471.584ZM650.07 484.823C650.07 480.009 648.826 476.599 646.339 474.593C643.851 472.587 639.88 471.584 634.424 471.584H609.149L607.946 472.788V496.858L609.149 498.062H634.424C639.88 498.062 643.851 497.059 646.339 495.053C648.826 493.047 650.07 489.637 650.07 484.823ZM662.105 484.823C662.105 491.483 660.46 496.658 657.171 500.349C653.881 504.04 649.508 506.487 644.052 507.69V508.894L660.902 535.372V543.796L659.698 545H654.884L652.477 543.796L630.813 510.097L628.406 508.894H609.149L607.946 510.097V543.796L606.742 545H597.114L595.91 543.796V461.956L597.114 460.752H634.424C642.848 460.752 649.548 462.678 654.523 466.529C659.578 470.3 662.105 476.398 662.105 484.823ZM671.724 502.876C671.724 496.537 672.607 490.72 674.372 485.425C676.137 480.129 678.705 475.556 682.074 471.704C685.444 467.853 689.577 464.884 694.471 462.798C699.446 460.632 705.102 459.549 711.441 459.549C717.779 459.549 723.396 460.632 728.29 462.798C733.265 464.884 737.437 467.853 740.807 471.704C744.177 475.556 746.745 480.129 748.51 485.425C750.275 490.72 751.158 496.537 751.158 502.876C751.158 509.215 750.275 515.032 748.51 520.327C746.745 525.623 744.177 530.196 740.807 534.048C737.437 537.899 733.265 540.908 728.29 543.074C723.396 545.16 717.779 546.204 711.441 546.204C705.102 546.204 699.446 545.16 694.471 543.074C689.577 540.908 685.444 537.899 682.074 534.048C678.705 530.196 676.137 525.623 674.372 520.327C672.607 515.032 671.724 509.215 671.724 502.876ZM683.759 502.876C683.759 507.69 684.361 512.103 685.565 516.115C686.768 520.047 688.533 523.457 690.86 526.345C693.187 529.234 696.076 531.48 699.526 533.085C702.976 534.609 706.948 535.372 711.441 535.372C715.934 535.372 719.906 534.609 723.356 533.085C726.806 531.48 729.695 529.234 732.021 526.345C734.348 523.457 736.113 520.047 737.317 516.115C738.52 512.103 739.122 507.69 739.122 502.876C739.122 498.062 738.52 493.689 737.317 489.758C736.113 485.746 734.348 482.296 732.021 479.407C729.695 476.519 726.806 474.312 723.356 472.788C719.906 471.183 715.934 470.381 711.441 470.381C706.948 470.381 702.976 471.183 699.526 472.788C696.076 474.312 693.187 476.519 690.86 479.407C688.533 482.296 686.768 485.746 685.565 489.758C684.361 493.689 683.759 498.062 683.759 502.876Z" fill="#FFFBF1"/>
<path d="M1202.9 327.316C1221.06 416.868 1174.39 511.04 1083.62 590.933C992.882 670.796 858.304 736.154 701.383 767.983C544.463 799.812 395.055 792.057 280.37 753.861C165.64 715.651 85.9655 647.107 67.801 557.555C49.6366 468.002 96.307 373.831 187.081 293.937C277.819 214.075 412.397 148.717 569.318 116.887C726.238 85.0583 875.646 92.814 990.331 131.009C1105.06 169.219 1184.74 237.763 1202.9 327.316Z" stroke="#FFFBF1" stroke-width="3"/>
</svg>
