<svg width="1016" height="1052" viewBox="0 0 1016 1052" fill="none" xmlns="http://www.w3.org/2000/svg">
<path d="M420.758 494H409.926L407.519 492.796L366.598 430.212H365.395V492.796L364.191 494H354.563L353.36 492.796V410.956L354.563 409.752H365.395L367.802 410.956L408.722 473.54H409.926V410.956L411.129 409.752H420.758L421.961 410.956V492.796L420.758 494ZM436.46 451.876C436.46 445.537 437.343 439.72 439.108 434.425C440.873 429.129 443.441 424.556 446.811 420.704C450.181 416.853 454.313 413.884 459.207 411.798C464.182 409.632 469.838 408.549 476.177 408.549C482.516 408.549 488.132 409.632 493.027 411.798C498.001 413.884 502.173 416.853 505.543 420.704C508.913 424.556 511.481 429.129 513.246 434.425C515.011 439.72 515.894 445.537 515.894 451.876C515.894 458.215 515.011 464.032 513.246 469.327C511.481 474.623 508.913 479.196 505.543 483.048C502.173 486.899 498.001 489.908 493.027 492.074C488.132 494.16 482.516 495.204 476.177 495.204C469.838 495.204 464.182 494.16 459.207 492.074C454.313 489.908 450.181 486.899 446.811 483.048C443.441 479.196 440.873 474.623 439.108 469.327C437.343 464.032 436.46 458.215 436.46 451.876ZM448.496 451.876C448.496 456.69 449.097 461.103 450.301 465.115C451.504 469.047 453.27 472.457 455.596 475.345C457.923 478.234 460.812 480.48 464.262 482.085C467.712 483.609 471.684 484.372 476.177 484.372C480.67 484.372 484.642 483.609 488.092 482.085C491.542 480.48 494.431 478.234 496.758 475.345C499.084 472.457 500.85 469.047 502.053 465.115C503.257 461.103 503.858 456.69 503.858 451.876C503.858 447.062 503.257 442.689 502.053 438.758C500.85 434.746 499.084 431.296 496.758 428.407C494.431 425.519 491.542 423.312 488.092 421.788C484.642 420.183 480.67 419.381 476.177 419.381C471.684 419.381 467.712 420.183 464.262 421.788C460.812 423.312 457.923 425.519 455.596 428.407C453.27 431.296 451.504 434.746 450.301 438.758C449.097 442.689 448.496 447.062 448.496 451.876ZM541.196 494H531.568L530.364 492.796V410.956L531.568 409.752H541.196L542.4 410.956V492.796L541.196 494Z" fill="#FFFBF1"/>
<path d="M935.384 388.812C956.993 495.347 901.464 607.321 793.583 702.271C685.738 797.19 525.805 874.858 339.336 912.68C152.866 950.503 -24.6888 941.29 -160.995 895.894C-297.346 850.483 -392.116 768.994 -413.725 662.46C-435.334 555.926 -379.805 443.951 -271.925 349.001C-164.079 254.082 -4.14641 176.415 182.323 138.592C368.792 100.769 546.347 109.982 682.654 155.378C819.005 200.789 913.775 282.278 935.384 388.812Z" stroke="#FFFBF1" stroke-width="3"/>
</svg>
