<svg width="1158" height="1048" viewBox="0 0 1158 1048" fill="none" xmlns="http://www.w3.org/2000/svg">
<path d="M956.531 389.796L955.327 391H944.496L943.292 389.796L915.611 316.381V307.956L916.814 306.752H924.035L925.239 307.956L949.31 374.15H950.513L974.584 307.956L975.788 306.752H983.009L984.212 307.956V316.381L956.531 389.796ZM991.448 348.876C991.448 342.537 992.33 336.72 994.096 331.425C995.861 326.129 998.428 321.556 1001.8 317.704C1005.17 313.853 1009.3 310.884 1014.19 308.798C1019.17 306.632 1024.83 305.549 1031.16 305.549C1037.5 305.549 1043.12 306.632 1048.01 308.798C1052.99 310.884 1057.16 313.853 1060.53 317.704C1063.9 321.556 1066.47 326.129 1068.23 331.425C1070 336.72 1070.88 342.537 1070.88 348.876C1070.88 355.215 1070 361.032 1068.23 366.327C1066.47 371.623 1063.9 376.196 1060.53 380.048C1057.16 383.899 1052.99 386.908 1048.01 389.074C1043.12 391.16 1037.5 392.204 1031.16 392.204C1024.83 392.204 1019.17 391.16 1014.19 389.074C1009.3 386.908 1005.17 383.899 1001.8 380.048C998.428 376.196 995.861 371.623 994.096 366.327C992.33 361.032 991.448 355.215 991.448 348.876ZM1003.48 348.876C1003.48 353.69 1004.08 358.103 1005.29 362.115C1006.49 366.047 1008.26 369.457 1010.58 372.345C1012.91 375.234 1015.8 377.48 1019.25 379.085C1022.7 380.609 1026.67 381.372 1031.16 381.372C1035.66 381.372 1039.63 380.609 1043.08 379.085C1046.53 377.48 1049.42 375.234 1051.75 372.345C1054.07 369.457 1055.84 366.047 1057.04 362.115C1058.24 358.103 1058.85 353.69 1058.85 348.876C1058.85 344.062 1058.24 339.689 1057.04 335.758C1055.84 331.746 1054.07 328.296 1051.75 325.407C1049.42 322.519 1046.53 320.312 1043.08 318.788C1039.63 317.183 1035.66 316.381 1031.16 316.381C1026.67 316.381 1022.7 317.183 1019.25 318.788C1015.8 320.312 1012.91 322.519 1010.58 325.407C1008.26 328.296 1006.49 331.746 1005.29 335.758C1004.08 339.689 1003.48 344.062 1003.48 348.876ZM1096.18 391H1086.56L1085.35 389.796V307.956L1086.56 306.752H1096.18L1097.39 307.956V389.796L1096.18 391Z" fill="#FFFBF1"/>
<path d="M425.992 473.936L439.816 436.624H446.408L428.936 482H422.728L405.64 436.624H412.296L425.992 473.936ZM457.387 477.584C462.507 477.584 466.987 473.744 466.987 466.576C466.987 459.472 462.507 455.632 457.387 455.632C452.267 455.632 447.787 459.472 447.787 466.576C447.787 473.744 452.267 477.584 457.387 477.584ZM457.387 450.256C466.603 450.256 473.131 457.232 473.131 466.576C473.131 475.984 466.603 482.96 457.387 482.96C448.171 482.96 441.643 475.984 441.643 466.576C441.643 457.232 448.171 450.256 457.387 450.256ZM482.3 482H476.348V451.216H482.3V482ZM475.004 439.568C475.004 437.136 476.924 435.216 479.292 435.216C481.724 435.216 483.644 437.136 483.644 439.568C483.644 441.936 481.724 443.856 479.292 443.856C476.924 443.856 475.004 441.936 475.004 439.568ZM520.301 455.824C515.437 455.824 510.957 459.408 510.957 466.576C510.957 473.616 515.373 477.392 520.365 477.392C526.125 477.392 528.237 473.488 528.941 471.056L534.253 473.36C532.781 477.776 528.365 482.96 520.365 482.96C511.405 482.96 504.813 475.92 504.813 466.576C504.813 456.976 511.533 450.256 520.301 450.256C528.493 450.256 532.717 455.376 533.997 460.048L528.557 462.352C527.789 459.344 525.549 455.824 520.301 455.824ZM542.846 463.888V482H536.83V435.664H542.846V454.8C545.086 451.536 548.67 450.32 552.19 450.32C559.55 450.32 563.198 455.632 563.198 462.48V482H557.182V463.504C557.182 459.216 555.39 455.76 550.014 455.76C545.406 455.76 542.974 459.344 542.846 463.888ZM572.191 463.44H589.023C588.895 459.024 586.015 455.568 580.575 455.568C575.519 455.568 572.447 459.472 572.191 463.44ZM589.919 471.44L595.103 473.232C593.375 478.672 588.447 482.96 581.279 482.96C573.023 482.96 565.791 476.944 565.791 466.512C565.791 456.848 572.767 450.256 580.511 450.256C589.983 450.256 595.295 456.784 595.295 466.384C595.295 467.152 595.231 467.92 595.167 468.304H571.999C572.127 473.808 576.095 477.648 581.279 477.648C586.271 477.648 588.767 474.896 589.919 471.44ZM615.893 473.744C615.893 468.24 619.925 465.168 625.237 464.4L633.557 463.184C635.413 462.928 635.925 461.968 635.925 460.88C635.925 457.872 633.941 455.376 629.269 455.376C625.045 455.376 622.677 458 622.293 461.584L616.533 460.24C617.173 454.352 622.485 450.256 629.141 450.256C638.357 450.256 641.941 455.504 641.941 461.52V476.944C641.941 479.632 642.197 481.232 642.325 482H636.437C636.309 481.232 636.117 480.08 636.117 477.84C634.773 480.016 631.701 482.96 626.197 482.96C619.925 482.96 615.893 478.608 615.893 473.744ZM627.029 477.904C631.957 477.904 635.925 475.536 635.925 468.816V467.408L626.517 468.816C623.957 469.2 622.037 470.672 622.037 473.424C622.037 475.728 623.957 477.904 627.029 477.904ZM643.952 474L649.392 472.08C649.776 475.28 652.208 477.84 656.56 477.84C659.952 477.84 661.808 475.92 661.808 473.744C661.808 471.824 660.4 470.352 657.84 469.776L652.592 468.624C647.792 467.6 644.912 464.336 644.912 459.984C644.912 454.736 649.84 450.256 655.856 450.256C664.304 450.256 666.928 455.76 667.568 458.512L662.256 460.496C662 458.896 660.72 455.376 655.856 455.376C652.784 455.376 650.736 457.36 650.736 459.472C650.736 461.328 651.888 462.672 654.256 463.184L659.248 464.272C664.816 465.488 667.76 468.88 667.76 473.424C667.76 477.776 664.112 482.96 656.496 482.96C648.048 482.96 644.464 477.52 643.952 474ZM683.905 455.824C679.041 455.824 674.561 459.408 674.561 466.576C674.561 473.616 678.977 477.392 683.969 477.392C689.729 477.392 691.841 473.488 692.545 471.056L697.857 473.36C696.385 477.776 691.969 482.96 683.969 482.96C675.009 482.96 668.417 475.92 668.417 466.576C668.417 456.976 675.137 450.256 683.905 450.256C692.097 450.256 696.321 455.376 697.601 460.048L692.161 462.352C691.393 459.344 689.153 455.824 683.905 455.824ZM713.307 477.584C718.427 477.584 722.907 473.744 722.907 466.576C722.907 459.472 718.427 455.632 713.307 455.632C708.187 455.632 703.707 459.472 703.707 466.576C703.707 473.744 708.187 477.584 713.307 477.584ZM713.307 450.256C722.523 450.256 729.051 457.232 729.051 466.576C729.051 475.984 722.523 482.96 713.307 482.96C704.091 482.96 697.563 475.984 697.563 466.576C697.563 457.232 704.091 450.256 713.307 450.256ZM738.283 482H732.267V435.664H738.283V482ZM752.102 441.488V451.216H758.758V456.656H752.102V472.656C752.102 475.472 753.254 476.88 756.39 476.88C757.158 476.88 758.246 476.752 758.758 476.624V481.744C758.246 481.936 756.71 482.32 754.662 482.32C749.414 482.32 746.086 479.12 746.086 473.552V456.656H740.198V451.216H741.862C745.19 451.216 746.598 449.168 746.598 446.48V441.488H752.102ZM760.388 473.744C760.388 468.24 764.42 465.168 769.732 464.4L778.052 463.184C779.908 462.928 780.42 461.968 780.42 460.88C780.42 457.872 778.436 455.376 773.764 455.376C769.54 455.376 767.172 458 766.788 461.584L761.028 460.24C761.668 454.352 766.98 450.256 773.635 450.256C782.852 450.256 786.436 455.504 786.436 461.52V476.944C786.436 479.632 786.692 481.232 786.82 482H780.932C780.804 481.232 780.612 480.08 780.612 477.84C779.268 480.016 776.196 482.96 770.692 482.96C764.42 482.96 760.388 478.608 760.388 473.744ZM771.524 477.904C776.452 477.904 780.42 475.536 780.42 468.816V467.408L771.012 468.816C768.452 469.2 766.532 470.672 766.532 473.424C766.532 475.728 768.452 477.904 771.524 477.904ZM799.391 441.488V451.216H806.047V456.656H799.391V472.656C799.391 475.472 800.543 476.88 803.679 476.88C804.447 476.88 805.535 476.752 806.047 476.624V481.744C805.535 481.936 803.999 482.32 801.951 482.32C796.703 482.32 793.375 479.12 793.375 473.552V456.656H787.487V451.216H789.151C792.479 451.216 793.887 449.168 793.887 446.48V441.488H799.391ZM813.189 463.44H830.021C829.893 459.024 827.013 455.568 821.573 455.568C816.517 455.568 813.445 459.472 813.189 463.44ZM830.917 471.44L836.101 473.232C834.373 478.672 829.445 482.96 822.277 482.96C814.021 482.96 806.789 476.944 806.789 466.512C806.789 456.848 813.765 450.256 821.509 450.256C830.981 450.256 836.293 456.784 836.293 466.384C836.293 467.152 836.229 467.92 836.165 468.304H812.997C813.125 473.808 817.093 477.648 822.277 477.648C827.269 477.648 829.765 474.896 830.917 471.44ZM837.915 477.904C837.915 475.6 839.899 473.616 842.587 473.616C845.339 473.616 847.771 475.664 847.771 479.696C847.771 488.144 842.267 491.664 838.299 492.176V488.848C841.435 488.144 843.547 485.008 843.611 481.936C843.419 482.064 842.907 482.256 842.203 482.256C839.835 482.256 837.915 480.656 837.915 477.904ZM878.221 482H872.205V435.664H878.221V482ZM887.879 463.44H904.711C904.583 459.024 901.703 455.568 896.263 455.568C891.207 455.568 888.135 459.472 887.879 463.44ZM905.607 471.44L910.791 473.232C909.063 478.672 904.135 482.96 896.967 482.96C888.711 482.96 881.479 476.944 881.479 466.512C881.479 456.848 888.455 450.256 896.199 450.256C905.671 450.256 910.983 456.784 910.983 466.384C910.983 467.152 910.919 467.92 910.855 468.304H887.687C887.815 473.808 891.783 477.648 896.967 477.648C901.959 477.648 904.455 474.896 905.607 471.44ZM911.943 483.664L917.767 482.32C918.215 486.608 921.479 489.872 926.151 489.872C932.615 489.872 935.559 486.544 935.559 479.888V475.472C934.087 478.288 930.759 480.528 926.151 480.528C917.959 480.528 912.007 474.32 912.007 465.616C912.007 457.296 917.703 450.64 926.151 450.64C930.887 450.64 934.087 452.432 935.623 455.504V451.216H941.575V479.696C941.575 487.504 937.735 495.12 926.151 495.12C918.47 495.12 912.711 490.256 911.943 483.664ZM927.047 475.472C932.231 475.472 935.815 471.568 935.815 465.616C935.815 459.664 932.231 455.76 927.047 455.76C921.735 455.76 918.151 459.664 918.151 465.616C918.151 471.632 921.607 475.472 927.047 475.472ZM944.463 483.664L950.287 482.32C950.735 486.608 953.999 489.872 958.671 489.872C965.135 489.872 968.079 486.544 968.079 479.888V475.472C966.607 478.288 963.279 480.528 958.671 480.528C950.479 480.528 944.527 474.32 944.527 465.616C944.527 457.296 950.223 450.64 958.671 450.64C963.407 450.64 966.607 452.432 968.143 455.504V451.216H974.095V479.696C974.095 487.504 970.255 495.12 958.671 495.12C950.991 495.12 945.231 490.256 944.463 483.664ZM959.567 475.472C964.751 475.472 968.335 471.568 968.335 465.616C968.335 459.664 964.751 455.76 959.567 455.76C954.255 455.76 950.671 459.664 950.671 465.616C950.671 471.632 954.127 475.472 959.567 475.472ZM983.127 463.44H999.959C999.831 459.024 996.951 455.568 991.511 455.568C986.455 455.568 983.383 459.472 983.127 463.44ZM1000.85 471.44L1006.04 473.232C1004.31 478.672 999.383 482.96 992.215 482.96C983.959 482.96 976.727 476.944 976.727 466.512C976.727 456.848 983.703 450.256 991.447 450.256C1000.92 450.256 1006.23 456.784 1006.23 466.384C1006.23 467.152 1006.17 467.92 1006.1 468.304H982.935C983.063 473.808 987.031 477.648 992.215 477.648C997.207 477.648 999.703 474.896 1000.85 471.44ZM1017.49 441.488V451.216H1024.15V456.656H1017.49V472.656C1017.49 475.472 1018.65 476.88 1021.78 476.88C1022.55 476.88 1023.64 476.752 1024.15 476.624V481.744C1023.64 481.936 1022.1 482.32 1020.05 482.32C1014.81 482.32 1011.48 479.12 1011.48 473.552V456.656H1005.59V451.216H1007.25C1010.58 451.216 1011.99 449.168 1011.99 446.48V441.488H1017.49ZM1031.29 463.44H1048.12C1048 459.024 1045.12 455.568 1039.68 455.568C1034.62 455.568 1031.55 459.472 1031.29 463.44ZM1049.02 471.44L1054.2 473.232C1052.48 478.672 1047.55 482.96 1040.38 482.96C1032.12 482.96 1024.89 476.944 1024.89 466.512C1024.89 456.848 1031.87 450.256 1039.61 450.256C1049.08 450.256 1054.4 456.784 1054.4 466.384C1054.4 467.152 1054.33 467.92 1054.27 468.304H1031.1C1031.23 473.808 1035.2 477.648 1040.38 477.648C1045.37 477.648 1047.87 474.896 1049.02 471.44ZM1080.82 463.44H1097.65C1097.52 459.024 1094.64 455.568 1089.2 455.568C1084.14 455.568 1081.07 459.472 1080.82 463.44ZM1098.54 471.44L1103.73 473.232C1102 478.672 1097.07 482.96 1089.9 482.96C1081.65 482.96 1074.42 476.944 1074.42 466.512C1074.42 456.848 1081.39 450.256 1089.14 450.256C1098.61 450.256 1103.92 456.784 1103.92 466.384C1103.92 467.152 1103.86 467.92 1103.79 468.304H1080.62C1080.75 473.808 1084.72 477.648 1089.9 477.648C1094.9 477.648 1097.39 474.896 1098.54 471.44ZM423.048 510.824C418.184 510.824 413.704 514.408 413.704 521.576C413.704 528.616 418.12 532.392 423.112 532.392C428.872 532.392 430.984 528.488 431.688 526.056L437 528.36C435.528 532.776 431.112 537.96 423.112 537.96C414.152 537.96 407.56 530.92 407.56 521.576C407.56 511.976 414.28 505.256 423.048 505.256C431.24 505.256 435.464 510.376 436.744 515.048L431.304 517.352C430.536 514.344 428.296 510.824 423.048 510.824ZM437.345 528.744C437.345 523.24 441.377 520.168 446.689 519.4L455.009 518.184C456.865 517.928 457.377 516.968 457.377 515.88C457.377 512.872 455.393 510.376 450.721 510.376C446.497 510.376 444.129 513 443.745 516.584L437.985 515.24C438.625 509.352 443.937 505.256 450.593 505.256C459.809 505.256 463.393 510.504 463.393 516.52V531.944C463.393 534.632 463.649 536.232 463.777 537H457.889C457.761 536.232 457.569 535.08 457.569 532.84C456.225 535.016 453.153 537.96 447.649 537.96C441.377 537.96 437.345 533.608 437.345 528.744ZM448.481 532.904C453.409 532.904 457.377 530.536 457.377 523.816V522.408L447.969 523.816C445.409 524.2 443.489 525.672 443.489 528.424C443.489 530.728 445.409 532.904 448.481 532.904ZM474.237 549.16H468.285V506.216H474.109V511.016C475.773 507.944 479.421 505.512 484.413 505.512C493.629 505.512 498.557 512.616 498.557 521.576C498.557 530.728 493.245 537.832 484.221 537.832C479.485 537.832 475.901 535.592 474.237 532.84V549.16ZM492.413 521.576C492.413 515.432 488.957 510.824 483.325 510.824C477.821 510.824 474.173 515.432 474.173 521.576C474.173 527.912 477.821 532.456 483.325 532.456C488.893 532.456 492.413 527.912 492.413 521.576ZM507.694 537H501.742V506.216H507.694V537ZM500.398 494.568C500.398 492.136 502.318 490.216 504.686 490.216C507.118 490.216 509.038 492.136 509.038 494.568C509.038 496.936 507.118 498.856 504.686 498.856C502.318 498.856 500.398 496.936 500.398 494.568ZM521.514 496.488V506.216H528.17V511.656H521.514V527.656C521.514 530.472 522.666 531.88 525.802 531.88C526.57 531.88 527.658 531.752 528.17 531.624V536.744C527.658 536.936 526.122 537.32 524.074 537.32C518.826 537.32 515.498 534.12 515.498 528.552V511.656H509.61V506.216H511.274C514.602 506.216 516.01 504.168 516.01 501.48V496.488H521.514ZM535.311 518.44H552.143C552.015 514.024 549.135 510.568 543.695 510.568C538.639 510.568 535.567 514.472 535.311 518.44ZM553.039 526.44L558.223 528.232C556.496 533.672 551.567 537.96 544.399 537.96C536.143 537.96 528.911 531.944 528.911 521.512C528.911 511.848 535.887 505.256 543.632 505.256C553.104 505.256 558.416 511.784 558.416 521.384C558.416 522.152 558.352 522.92 558.287 523.304H535.119C535.247 528.808 539.215 532.648 544.399 532.648C549.392 532.648 551.887 529.896 553.039 526.44ZM560.037 532.904C560.037 530.6 562.021 528.616 564.709 528.616C567.461 528.616 569.893 530.664 569.893 534.696C569.893 543.144 564.389 546.664 560.421 547.176V543.848C563.557 543.144 565.669 540.008 565.733 536.936C565.541 537.064 565.029 537.256 564.325 537.256C561.957 537.256 560.037 535.656 560.037 532.904ZM592.116 529L597.556 527.08C597.94 530.28 600.372 532.84 604.724 532.84C608.116 532.84 609.972 530.92 609.972 528.744C609.972 526.824 608.564 525.352 606.004 524.776L600.756 523.624C595.956 522.6 593.076 519.336 593.076 514.984C593.076 509.736 598.004 505.256 604.02 505.256C612.468 505.256 615.092 510.76 615.732 513.512L610.42 515.496C610.164 513.896 608.884 510.376 604.02 510.376C600.948 510.376 598.9 512.36 598.9 514.472C598.9 516.328 600.052 517.672 602.42 518.184L607.412 519.272C612.98 520.488 615.924 523.88 615.924 528.424C615.924 532.776 612.276 537.96 604.66 537.96C596.212 537.96 592.628 532.52 592.116 529ZM632.069 510.824C627.205 510.824 622.725 514.408 622.725 521.576C622.725 528.616 627.141 532.392 632.133 532.392C637.893 532.392 640.005 528.488 640.709 526.056L646.021 528.36C644.549 532.776 640.133 537.96 632.133 537.96C623.173 537.96 616.581 530.92 616.581 521.576C616.581 511.976 623.301 505.256 632.069 505.256C640.261 505.256 644.485 510.376 645.765 515.048L640.325 517.352C639.557 514.344 637.317 510.824 632.069 510.824ZM661.47 532.584C666.59 532.584 671.07 528.744 671.07 521.576C671.07 514.472 666.59 510.632 661.47 510.632C656.35 510.632 651.87 514.472 651.87 521.576C651.87 528.744 656.35 532.584 661.47 532.584ZM661.47 505.256C670.686 505.256 677.214 512.232 677.214 521.576C677.214 530.984 670.686 537.96 661.47 537.96C652.254 537.96 645.726 530.984 645.726 521.576C645.726 512.232 652.254 505.256 661.47 505.256ZM686.383 549.16H680.431V506.216H686.255V511.016C687.919 507.944 691.567 505.512 696.559 505.512C705.775 505.512 710.703 512.616 710.703 521.576C710.703 530.728 705.391 537.832 696.367 537.832C691.631 537.832 688.047 535.592 686.383 532.84V549.16ZM704.559 521.576C704.559 515.432 701.103 510.824 695.471 510.824C689.967 510.824 686.319 515.432 686.319 521.576C686.319 527.912 689.967 532.456 695.471 532.456C701.039 532.456 704.559 527.912 704.559 521.576ZM730.976 505.896V512.296C730.08 512.168 729.184 512.104 728.352 512.104C723.296 512.104 719.904 514.792 719.904 521.576V537H713.888V506.216H719.776V511.592C722.016 506.856 725.856 505.704 728.992 505.704C729.824 505.704 730.656 505.832 730.976 505.896ZM738.86 537H732.908V506.216H738.86V537ZM731.564 494.568C731.564 492.136 733.484 490.216 735.852 490.216C738.284 490.216 740.204 492.136 740.204 494.568C740.204 496.936 738.284 498.856 735.852 498.856C733.484 498.856 731.564 496.936 731.564 494.568ZM752.68 496.488V506.216H759.336V511.656H752.68V527.656C752.68 530.472 753.832 531.88 756.968 531.88C757.736 531.88 758.824 531.752 759.336 531.624V536.744C758.824 536.936 757.288 537.32 755.24 537.32C749.992 537.32 746.664 534.12 746.664 528.552V511.656H740.776V506.216H742.44C745.768 506.216 747.176 504.168 747.176 501.48V496.488H752.68ZM766.477 518.44H783.309C783.181 514.024 780.301 510.568 774.861 510.568C769.805 510.568 766.733 514.472 766.477 518.44ZM784.205 526.44L789.389 528.232C787.661 533.672 782.733 537.96 775.565 537.96C767.309 537.96 760.077 531.944 760.077 521.512C760.077 511.848 767.053 505.256 774.797 505.256C784.269 505.256 789.581 511.784 789.581 521.384C789.581 522.152 789.517 522.92 789.453 523.304H766.285C766.413 528.808 770.381 532.648 775.565 532.648C780.557 532.648 783.053 529.896 784.205 526.44ZM825.695 510.824C820.831 510.824 816.351 514.408 816.351 521.576C816.351 528.616 820.767 532.392 825.759 532.392C831.519 532.392 833.631 528.488 834.335 526.056L839.647 528.36C838.175 532.776 833.759 537.96 825.759 537.96C816.799 537.96 810.207 530.92 810.207 521.576C810.207 511.976 816.927 505.256 825.695 505.256C833.887 505.256 838.111 510.376 839.391 515.048L833.951 517.352C833.183 514.344 830.943 510.824 825.695 510.824ZM855.096 532.584C860.216 532.584 864.696 528.744 864.696 521.576C864.696 514.472 860.216 510.632 855.096 510.632C849.976 510.632 845.496 514.472 845.496 521.576C845.496 528.744 849.976 532.584 855.096 532.584ZM855.096 505.256C864.312 505.256 870.84 512.232 870.84 521.576C870.84 530.984 864.312 537.96 855.096 537.96C845.88 537.96 839.352 530.984 839.352 521.576C839.352 512.232 845.88 505.256 855.096 505.256ZM880.009 537H874.057V506.216H879.817V510.312C881.737 506.92 885.577 505.32 889.161 505.32C893.001 505.32 896.713 507.176 898.377 511.144C900.809 506.728 904.777 505.32 908.681 505.32C914.057 505.32 919.305 508.968 919.305 517.032V537H913.353V517.672C913.353 513.64 911.369 510.632 906.825 510.632C902.601 510.632 899.721 513.96 899.721 518.376V537H893.705V517.672C893.705 513.704 891.785 510.632 887.177 510.632C882.889 510.632 880.009 513.832 880.009 518.44V537ZM928.356 518.44H945.188C945.06 514.024 942.18 510.568 936.74 510.568C931.684 510.568 928.612 514.472 928.356 518.44ZM946.084 526.44L951.268 528.232C949.54 533.672 944.612 537.96 937.444 537.96C929.188 537.96 921.956 531.944 921.956 521.512C921.956 511.848 928.932 505.256 936.676 505.256C946.148 505.256 951.46 511.784 951.46 521.384C951.46 522.152 951.396 522.92 951.332 523.304H928.164C928.292 528.808 932.26 532.648 937.444 532.648C942.436 532.648 944.932 529.896 946.084 526.44ZM980.597 549.16H974.645V506.216H980.469V511.016C982.133 507.944 985.781 505.512 990.773 505.512C999.989 505.512 1004.92 512.616 1004.92 521.576C1004.92 530.728 999.605 537.832 990.581 537.832C985.845 537.832 982.261 535.592 980.597 532.84V549.16ZM998.773 521.576C998.773 515.432 995.317 510.824 989.685 510.824C984.181 510.824 980.533 515.432 980.533 521.576C980.533 527.912 984.181 532.456 989.685 532.456C995.253 532.456 998.773 527.912 998.773 521.576ZM1021.29 532.584C1026.41 532.584 1030.89 528.744 1030.89 521.576C1030.89 514.472 1026.41 510.632 1021.29 510.632C1016.17 510.632 1011.69 514.472 1011.69 521.576C1011.69 528.744 1016.17 532.584 1021.29 532.584ZM1021.29 505.256C1030.5 505.256 1037.03 512.232 1037.03 521.576C1037.03 530.984 1030.5 537.96 1021.29 537.96C1012.07 537.96 1005.54 530.984 1005.54 521.576C1005.54 512.232 1012.07 505.256 1021.29 505.256ZM1048 496.488V506.216H1054.66V511.656H1048V527.656C1048 530.472 1049.15 531.88 1052.29 531.88C1053.06 531.88 1054.14 531.752 1054.66 531.624V536.744C1054.14 536.936 1052.61 537.32 1050.56 537.32C1045.31 537.32 1041.98 534.12 1041.98 528.552V511.656H1036.1V506.216H1037.76C1041.09 506.216 1042.5 504.168 1042.5 501.48V496.488H1048ZM1061.8 518.44H1078.63C1078.5 514.024 1075.62 510.568 1070.18 510.568C1065.12 510.568 1062.05 514.472 1061.8 518.44ZM1079.52 526.44L1084.71 528.232C1082.98 533.672 1078.05 537.96 1070.88 537.96C1062.63 537.96 1055.4 531.944 1055.4 521.512C1055.4 511.848 1062.37 505.256 1070.12 505.256C1079.59 505.256 1084.9 511.784 1084.9 521.384C1084.9 522.152 1084.84 522.92 1084.77 523.304H1061.6C1061.73 528.808 1065.7 532.648 1070.88 532.648C1075.88 532.648 1078.37 529.896 1079.52 526.44ZM1105.19 505.896V512.296C1104.29 512.168 1103.4 512.104 1102.56 512.104C1097.51 512.104 1094.12 514.792 1094.12 521.576V537H1088.1V506.216H1093.99V511.592C1096.23 506.856 1100.07 505.704 1103.2 505.704C1104.04 505.704 1104.87 505.832 1105.19 505.896ZM416.072 604.16H410.12V561.216H415.944V566.016C417.608 562.944 421.256 560.512 426.248 560.512C435.464 560.512 440.392 567.616 440.392 576.576C440.392 585.728 435.08 592.832 426.056 592.832C421.32 592.832 417.736 590.592 416.072 587.84V604.16ZM434.248 576.576C434.248 570.432 430.792 565.824 425.16 565.824C419.656 565.824 416.008 570.432 416.008 576.576C416.008 582.912 419.656 587.456 425.16 587.456C430.728 587.456 434.248 582.912 434.248 576.576ZM441.658 583.744C441.658 578.24 445.69 575.168 451.002 574.4L459.322 573.184C461.178 572.928 461.69 571.968 461.69 570.88C461.69 567.872 459.706 565.376 455.034 565.376C450.81 565.376 448.442 568 448.058 571.584L442.298 570.24C442.938 564.352 448.25 560.256 454.906 560.256C464.122 560.256 467.706 565.504 467.706 571.52V586.944C467.706 589.632 467.962 591.232 468.09 592H462.202C462.074 591.232 461.882 590.08 461.882 587.84C460.538 590.016 457.466 592.96 451.962 592.96C445.69 592.96 441.658 588.608 441.658 583.744ZM452.794 587.904C457.722 587.904 461.69 585.536 461.69 578.816V577.408L452.282 578.816C449.722 579.2 447.802 580.672 447.802 583.424C447.802 585.728 449.722 587.904 452.794 587.904ZM489.686 560.896V567.296C488.79 567.168 487.894 567.104 487.062 567.104C482.006 567.104 478.614 569.792 478.614 576.576V592H472.598V561.216H478.486V566.592C480.726 561.856 484.566 560.704 487.702 560.704C488.534 560.704 489.366 560.832 489.686 560.896ZM501.306 551.488V561.216H507.962V566.656H501.306V582.656C501.306 585.472 502.458 586.88 505.594 586.88C506.362 586.88 507.45 586.752 507.962 586.624V591.744C507.45 591.936 505.914 592.32 503.866 592.32C498.618 592.32 495.29 589.12 495.29 583.552V566.656H489.402V561.216H491.066C494.394 561.216 495.802 559.168 495.802 556.48V551.488H501.306ZM515.104 573.44H531.936C531.808 569.024 528.928 565.568 523.488 565.568C518.432 565.568 515.36 569.472 515.104 573.44ZM532.832 581.44L538.016 583.232C536.288 588.672 531.36 592.96 524.192 592.96C515.936 592.96 508.704 586.944 508.704 576.512C508.704 566.848 515.68 560.256 523.424 560.256C532.896 560.256 538.208 566.784 538.208 576.384C538.208 577.152 538.144 577.92 538.08 578.304H514.912C515.04 583.808 519.008 587.648 524.192 587.648C529.184 587.648 531.68 584.896 532.832 581.44ZM554.336 565.824C549.472 565.824 544.992 569.408 544.992 576.576C544.992 583.616 549.408 587.392 554.4 587.392C560.16 587.392 562.272 583.488 562.976 581.056L568.288 583.36C566.816 587.776 562.4 592.96 554.4 592.96C545.44 592.96 538.848 585.92 538.848 576.576C538.848 566.976 545.568 560.256 554.336 560.256C562.528 560.256 566.752 565.376 568.032 570.048L562.592 572.352C561.824 569.344 559.584 565.824 554.336 565.824ZM576.817 592H570.865V561.216H576.817V592ZM569.521 549.568C569.521 547.136 571.441 545.216 573.809 545.216C576.241 545.216 578.161 547.136 578.161 549.568C578.161 551.936 576.241 553.856 573.809 553.856C571.441 553.856 569.521 551.936 569.521 549.568ZM588.524 604.16H582.572V561.216H588.396V566.016C590.061 562.944 593.708 560.512 598.701 560.512C607.917 560.512 612.845 567.616 612.845 576.576C612.845 585.728 607.533 592.832 598.509 592.832C593.773 592.832 590.189 590.592 588.524 587.84V604.16ZM606.701 576.576C606.701 570.432 603.245 565.824 597.613 565.824C592.109 565.824 588.46 570.432 588.46 576.576C588.46 582.912 592.109 587.456 597.613 587.456C603.181 587.456 606.701 582.912 606.701 576.576ZM614.11 583.744C614.11 578.24 618.142 575.168 623.454 574.4L631.774 573.184C633.63 572.928 634.142 571.968 634.142 570.88C634.142 567.872 632.158 565.376 627.486 565.376C623.262 565.376 620.894 568 620.51 571.584L614.75 570.24C615.39 564.352 620.702 560.256 627.358 560.256C636.574 560.256 640.158 565.504 640.158 571.52V586.944C640.158 589.632 640.414 591.232 640.542 592H634.654C634.526 591.232 634.334 590.08 634.334 587.84C632.99 590.016 629.918 592.96 624.414 592.96C618.142 592.96 614.11 588.608 614.11 583.744ZM625.246 587.904C630.174 587.904 634.142 585.536 634.142 578.816V577.408L624.734 578.816C622.174 579.2 620.254 580.672 620.254 583.424C620.254 585.728 622.174 587.904 625.246 587.904ZM662.138 560.896V567.296C661.242 567.168 660.346 567.104 659.514 567.104C654.458 567.104 651.066 569.792 651.066 576.576V592H645.05V561.216H650.938V566.592C653.178 561.856 657.018 560.704 660.154 560.704C660.986 560.704 661.818 560.832 662.138 560.896ZM667.661 573.44H684.493C684.365 569.024 681.485 565.568 676.045 565.568C670.989 565.568 667.917 569.472 667.661 573.44ZM685.389 581.44L690.573 583.232C688.845 588.672 683.917 592.96 676.749 592.96C668.493 592.96 661.261 586.944 661.261 576.512C661.261 566.848 668.237 560.256 675.981 560.256C685.453 560.256 690.765 566.784 690.765 576.384C690.765 577.152 690.701 577.92 690.637 578.304H667.469C667.597 583.808 671.565 587.648 676.749 587.648C681.741 587.648 684.237 584.896 685.389 581.44ZM710.358 583.744C710.358 578.24 714.39 575.168 719.702 574.4L728.022 573.184C729.878 572.928 730.39 571.968 730.39 570.88C730.39 567.872 728.406 565.376 723.734 565.376C719.51 565.376 717.142 568 716.758 571.584L710.998 570.24C711.638 564.352 716.95 560.256 723.606 560.256C732.822 560.256 736.406 565.504 736.406 571.52V586.944C736.406 589.632 736.662 591.232 736.79 592H730.902C730.774 591.232 730.582 590.08 730.582 587.84C729.238 590.016 726.166 592.96 720.662 592.96C714.39 592.96 710.358 588.608 710.358 583.744ZM721.494 587.904C726.422 587.904 730.39 585.536 730.39 578.816V577.408L720.982 578.816C718.422 579.2 716.502 580.672 716.502 583.424C716.502 585.728 718.422 587.904 721.494 587.904ZM749.362 551.488V561.216H756.018V566.656H749.362V582.656C749.362 585.472 750.514 586.88 753.65 586.88C754.418 586.88 755.506 586.752 756.018 586.624V591.744C755.506 591.936 753.97 592.32 751.922 592.32C746.674 592.32 743.346 589.12 743.346 583.552V566.656H737.458V561.216H739.122C742.45 561.216 743.858 559.168 743.858 556.48V551.488H749.362ZM767.632 551.488V561.216H774.288V566.656H767.632V582.656C767.632 585.472 768.784 586.88 771.92 586.88C772.688 586.88 773.776 586.752 774.288 586.624V591.744C773.776 591.936 772.24 592.32 770.192 592.32C764.944 592.32 761.616 589.12 761.616 583.552V566.656H755.728V561.216H757.392C760.72 561.216 762.128 559.168 762.128 556.48V551.488H767.632ZM783.789 592H777.837V561.216H783.789V592ZM776.493 549.568C776.493 547.136 778.413 545.216 780.781 545.216C783.213 545.216 785.133 547.136 785.133 549.568C785.133 551.936 783.213 553.856 780.781 553.856C778.413 553.856 776.493 551.936 776.493 549.568ZM815.913 561.216L803.625 592H797.545L785.065 561.216H791.849L800.617 584.96L809.449 561.216H815.913ZM814.958 583.744C814.958 578.24 818.99 575.168 824.302 574.4L832.622 573.184C834.478 572.928 834.99 571.968 834.99 570.88C834.99 567.872 833.006 565.376 828.334 565.376C824.11 565.376 821.742 568 821.358 571.584L815.598 570.24C816.238 564.352 821.55 560.256 828.206 560.256C837.422 560.256 841.006 565.504 841.006 571.52V586.944C841.006 589.632 841.262 591.232 841.39 592H835.502C835.374 591.232 835.182 590.08 835.182 587.84C833.838 590.016 830.766 592.96 825.262 592.96C818.99 592.96 814.958 588.608 814.958 583.744ZM826.094 587.904C831.022 587.904 834.99 585.536 834.99 578.816V577.408L825.582 578.816C823.022 579.2 821.102 580.672 821.102 583.424C821.102 585.728 823.022 587.904 826.094 587.904ZM851.849 592H845.897V561.216H851.657V565.312C853.577 561.92 857.417 560.32 861.001 560.32C864.841 560.32 868.553 562.176 870.217 566.144C872.649 561.728 876.617 560.32 880.521 560.32C885.897 560.32 891.146 563.968 891.146 572.032V592H885.193V572.672C885.193 568.64 883.209 565.632 878.665 565.632C874.441 565.632 871.561 568.96 871.561 573.376V592H865.545V572.672C865.545 568.704 863.625 565.632 859.017 565.632C854.729 565.632 851.849 568.832 851.849 573.44V592ZM900.197 573.44H917.029C916.901 569.024 914.021 565.568 908.581 565.568C903.525 565.568 900.453 569.472 900.197 573.44ZM917.925 581.44L923.109 583.232C921.381 588.672 916.453 592.96 909.285 592.96C901.029 592.96 893.797 586.944 893.797 576.512C893.797 566.848 900.773 560.256 908.517 560.256C917.989 560.256 923.301 566.784 923.301 576.384C923.301 577.152 923.237 577.92 923.173 578.304H900.005C900.133 583.808 904.101 587.648 909.285 587.648C914.277 587.648 916.773 584.896 917.925 581.44ZM932.516 574.208V592H926.5V561.216H932.388V565.632C934.628 561.792 938.276 560.32 941.86 560.32C949.22 560.32 952.868 565.632 952.868 572.48V592H946.852V573.504C946.852 569.216 945.06 565.76 939.684 565.76C934.948 565.76 932.516 569.536 932.516 574.208ZM966.022 551.488V561.216H972.678V566.656H966.022V582.656C966.022 585.472 967.174 586.88 970.31 586.88C971.078 586.88 972.166 586.752 972.678 586.624V591.744C972.166 591.936 970.63 592.32 968.582 592.32C963.334 592.32 960.006 589.12 960.006 583.552V566.656H954.118V561.216H955.782C959.11 561.216 960.518 559.168 960.518 556.48V551.488H966.022ZM979.819 573.44H996.651C996.523 569.024 993.643 565.568 988.203 565.568C983.147 565.568 980.075 569.472 979.819 573.44ZM997.547 581.44L1002.73 583.232C1001 588.672 996.075 592.96 988.907 592.96C980.651 592.96 973.419 586.944 973.419 576.512C973.419 566.848 980.395 560.256 988.139 560.256C997.611 560.256 1002.92 566.784 1002.92 576.384C1002.92 577.152 1002.86 577.92 1002.8 578.304H979.627C979.755 583.808 983.723 587.648 988.907 587.648C993.899 587.648 996.395 584.896 997.547 581.44ZM1030.39 604.16H1024.44V561.216H1030.26V566.016C1031.92 562.944 1035.57 560.512 1040.56 560.512C1049.78 560.512 1054.71 567.616 1054.71 576.576C1054.71 585.728 1049.4 592.832 1040.37 592.832C1035.64 592.832 1032.05 590.592 1030.39 587.84V604.16ZM1048.56 576.576C1048.56 570.432 1045.11 565.824 1039.48 565.824C1033.97 565.824 1030.32 570.432 1030.32 576.576C1030.32 582.912 1033.97 587.456 1039.48 587.456C1045.04 587.456 1048.56 582.912 1048.56 576.576ZM1061.8 573.44H1078.63C1078.5 569.024 1075.62 565.568 1070.18 565.568C1065.12 565.568 1062.05 569.472 1061.8 573.44ZM1079.52 581.44L1084.71 583.232C1082.98 588.672 1078.05 592.96 1070.88 592.96C1062.63 592.96 1055.4 586.944 1055.4 576.512C1055.4 566.848 1062.37 560.256 1070.12 560.256C1079.59 560.256 1084.9 566.784 1084.9 576.384C1084.9 577.152 1084.84 577.92 1084.77 578.304H1061.6C1061.73 583.808 1065.7 587.648 1070.88 587.648C1075.88 587.648 1078.37 584.896 1079.52 581.44ZM1105.19 560.896V567.296C1104.29 567.168 1103.4 567.104 1102.56 567.104C1097.51 567.104 1094.12 569.792 1094.12 576.576V592H1088.1V561.216H1093.99V566.592C1096.23 561.856 1100.07 560.704 1103.2 560.704C1104.04 560.704 1104.87 560.832 1105.19 560.896ZM423.048 620.824C418.184 620.824 413.704 624.408 413.704 631.576C413.704 638.616 418.12 642.392 423.112 642.392C428.872 642.392 430.984 638.488 431.688 636.056L437 638.36C435.528 642.776 431.112 647.96 423.112 647.96C414.152 647.96 407.56 640.92 407.56 631.576C407.56 621.976 414.28 615.256 423.048 615.256C431.24 615.256 435.464 620.376 436.744 625.048L431.304 627.352C430.536 624.344 428.296 620.824 423.048 620.824ZM452.449 642.584C457.569 642.584 462.049 638.744 462.049 631.576C462.049 624.472 457.569 620.632 452.449 620.632C447.329 620.632 442.849 624.472 442.849 631.576C442.849 638.744 447.329 642.584 452.449 642.584ZM452.449 615.256C461.665 615.256 468.193 622.232 468.193 631.576C468.193 640.984 461.665 647.96 452.449 647.96C443.233 647.96 436.705 640.984 436.705 631.576C436.705 622.232 443.233 615.256 452.449 615.256ZM477.426 629.208V647H471.41V616.216H477.298V620.632C479.538 616.792 483.186 615.32 486.77 615.32C494.13 615.32 497.778 620.632 497.778 627.48V647H491.762V628.504C491.762 624.216 489.97 620.76 484.594 620.76C479.858 620.76 477.426 624.536 477.426 629.208ZM510.931 606.488V616.216H517.587V621.656H510.931V637.656C510.931 640.472 512.083 641.88 515.219 641.88C515.987 641.88 517.075 641.752 517.587 641.624V646.744C517.075 646.936 515.539 647.32 513.491 647.32C508.243 647.32 504.915 644.12 504.915 638.552V621.656H499.027V616.216H500.691C504.019 616.216 505.427 614.168 505.427 611.48V606.488H510.931ZM537.601 615.896V622.296C536.705 622.168 535.809 622.104 534.977 622.104C529.921 622.104 526.529 624.792 526.529 631.576V647H520.513V616.216H526.401V621.592C528.641 616.856 532.481 615.704 535.617 615.704C536.449 615.704 537.281 615.832 537.601 615.896ZM545.485 647H539.533V616.216H545.485V647ZM538.189 604.568C538.189 602.136 540.109 600.216 542.477 600.216C544.909 600.216 546.829 602.136 546.829 604.568C546.829 606.936 544.909 608.856 542.477 608.856C540.109 608.856 538.189 606.936 538.189 604.568ZM557.192 647H551.24V600.664H557.192V620.568C558.664 617.816 562.248 615.32 567.368 615.32C576.712 615.32 581.512 622.488 581.512 631.448C581.512 640.6 576.328 647.832 567.176 647.832C562.632 647.832 559.112 645.848 557.192 642.52V647ZM575.368 631.448C575.368 624.792 571.848 620.632 566.28 620.632C560.968 620.632 557.128 624.792 557.128 631.448C557.128 638.104 560.968 642.456 566.28 642.456C571.784 642.456 575.368 638.104 575.368 631.448ZM604.673 643.288C603.009 646.488 599.169 647.96 595.585 647.96C588.417 647.96 584.065 642.584 584.065 635.608V616.216H590.081V634.712C590.081 638.936 592.001 642.648 597.057 642.648C601.921 642.648 604.353 639.448 604.353 634.776V616.216H610.369V641.304C610.369 643.736 610.561 645.912 610.689 647H604.929C604.801 646.296 604.673 644.568 604.673 643.288ZM622.107 647H616.155V616.216H622.107V647ZM614.811 604.568C614.811 602.136 616.731 600.216 619.099 600.216C621.531 600.216 623.451 602.136 623.451 604.568C623.451 606.936 621.531 608.856 619.099 608.856C616.731 608.856 614.811 606.936 614.811 604.568ZM644.95 615.896V622.296C644.054 622.168 643.158 622.104 642.326 622.104C637.27 622.104 633.878 624.792 633.878 631.576V647H627.862V616.216H633.75V621.592C635.99 616.856 639.83 615.704 642.966 615.704C643.798 615.704 644.63 615.832 644.95 615.896ZM650.474 628.44H667.306C667.178 624.024 664.298 620.568 658.858 620.568C653.802 620.568 650.73 624.472 650.474 628.44ZM668.202 636.44L673.386 638.232C671.658 643.672 666.73 647.96 659.562 647.96C651.306 647.96 644.074 641.944 644.074 631.512C644.074 621.848 651.05 615.256 658.794 615.256C668.266 615.256 673.578 621.784 673.578 631.384C673.578 632.152 673.514 632.92 673.45 633.304H650.282C650.41 638.808 654.378 642.648 659.562 642.648C664.554 642.648 667.05 639.896 668.202 636.44ZM686.377 638.744C686.377 633.24 690.409 630.168 695.721 629.4L704.041 628.184C705.897 627.928 706.409 626.968 706.409 625.88C706.409 622.872 704.425 620.376 699.753 620.376C695.529 620.376 693.161 623 692.777 626.584L687.017 625.24C687.657 619.352 692.969 615.256 699.625 615.256C708.841 615.256 712.425 620.504 712.425 626.52V641.944C712.425 644.632 712.681 646.232 712.809 647H706.921C706.793 646.232 706.601 645.08 706.601 642.84C705.257 645.016 702.185 647.96 696.681 647.96C690.409 647.96 686.377 643.608 686.377 638.744ZM697.513 642.904C702.441 642.904 706.409 640.536 706.409 633.816V632.408L697.001 633.816C694.441 634.2 692.521 635.672 692.521 638.424C692.521 640.728 694.441 642.904 697.513 642.904ZM723.334 647H717.318V600.664H723.334V647ZM753.535 620.824C748.671 620.824 744.191 624.408 744.191 631.576C744.191 638.616 748.607 642.392 753.599 642.392C759.359 642.392 761.471 638.488 762.175 636.056L767.487 638.36C766.015 642.776 761.599 647.96 753.599 647.96C744.639 647.96 738.047 640.92 738.047 631.576C738.047 621.976 744.767 615.256 753.535 615.256C761.727 615.256 765.951 620.376 767.231 625.048L761.791 627.352C761.023 624.344 758.783 620.824 753.535 620.824ZM767.833 638.744C767.833 633.24 771.865 630.168 777.177 629.4L785.497 628.184C787.353 627.928 787.865 626.968 787.865 625.88C787.865 622.872 785.881 620.376 781.209 620.376C776.985 620.376 774.617 623 774.233 626.584L768.473 625.24C769.113 619.352 774.425 615.256 781.081 615.256C790.297 615.256 793.881 620.504 793.881 626.52V641.944C793.881 644.632 794.137 646.232 794.265 647H788.377C788.249 646.232 788.057 645.08 788.057 642.84C786.713 645.016 783.641 647.96 778.137 647.96C771.865 647.96 767.833 643.608 767.833 638.744ZM778.969 642.904C783.897 642.904 787.865 640.536 787.865 633.816V632.408L778.457 633.816C775.897 634.2 773.977 635.672 773.977 638.424C773.977 640.728 775.897 642.904 778.969 642.904ZM804.724 647H798.772V616.216H804.532V620.312C806.452 616.92 810.292 615.32 813.876 615.32C817.716 615.32 821.428 617.176 823.092 621.144C825.524 616.728 829.492 615.32 833.396 615.32C838.772 615.32 844.021 618.968 844.021 627.032V647H838.068V627.672C838.068 623.64 836.084 620.632 831.54 620.632C827.316 620.632 824.436 623.96 824.436 628.376V647H818.42V627.672C818.42 623.704 816.5 620.632 811.892 620.632C807.604 620.632 804.724 623.832 804.724 628.44V647ZM855.119 647H849.167V600.664H855.119V620.568C856.591 617.816 860.175 615.32 865.295 615.32C874.639 615.32 879.439 622.488 879.439 631.448C879.439 640.6 874.255 647.832 865.103 647.832C860.559 647.832 857.039 645.848 855.119 642.52V647ZM873.295 631.448C873.295 624.792 869.775 620.632 864.207 620.632C858.895 620.632 855.055 624.792 855.055 631.448C855.055 638.104 858.895 642.456 864.207 642.456C869.711 642.456 873.295 638.104 873.295 631.448ZM888.577 647H882.625V616.216H888.577V647ZM881.281 604.568C881.281 602.136 883.201 600.216 885.569 600.216C888.001 600.216 889.921 602.136 889.921 604.568C889.921 606.936 888.001 608.856 885.569 608.856C883.201 608.856 881.281 606.936 881.281 604.568ZM892.412 638.744C892.412 633.24 896.444 630.168 901.756 629.4L910.076 628.184C911.932 627.928 912.444 626.968 912.444 625.88C912.444 622.872 910.46 620.376 905.788 620.376C901.564 620.376 899.196 623 898.812 626.584L893.052 625.24C893.692 619.352 899.004 615.256 905.66 615.256C914.876 615.256 918.46 620.504 918.46 626.52V641.944C918.46 644.632 918.716 646.232 918.844 647H912.956C912.828 646.232 912.636 645.08 912.636 642.84C911.292 645.016 908.22 647.96 902.716 647.96C896.444 647.96 892.412 643.608 892.412 638.744ZM903.548 642.904C908.476 642.904 912.444 640.536 912.444 633.816V632.408L903.036 633.816C900.476 634.2 898.556 635.672 898.556 638.424C898.556 640.728 900.476 642.904 903.548 642.904ZM929.304 647H923.352V616.216H929.112V620.312C931.032 616.92 934.872 615.32 938.456 615.32C942.296 615.32 946.008 617.176 947.672 621.144C950.104 616.728 954.072 615.32 957.976 615.32C963.352 615.32 968.6 618.968 968.6 627.032V647H962.648V627.672C962.648 623.64 960.664 620.632 956.12 620.632C951.896 620.632 949.016 623.96 949.016 628.376V647H943V627.672C943 623.704 941.08 620.632 936.472 620.632C932.184 620.632 929.304 623.832 929.304 628.44V647ZM977.652 628.44H994.484C994.356 624.024 991.476 620.568 986.036 620.568C980.98 620.568 977.908 624.472 977.652 628.44ZM995.38 636.44L1000.56 638.232C998.836 643.672 993.908 647.96 986.74 647.96C978.484 647.96 971.252 641.944 971.252 631.512C971.252 621.848 978.228 615.256 985.972 615.256C995.444 615.256 1000.76 621.784 1000.76 631.384C1000.76 632.152 1000.69 632.92 1000.63 633.304H977.46C977.588 638.808 981.556 642.648 986.74 642.648C991.732 642.648 994.228 639.896 995.38 636.44ZM1009.97 629.208V647H1003.96V616.216H1009.84V620.632C1012.08 616.792 1015.73 615.32 1019.32 615.32C1026.68 615.32 1030.32 620.632 1030.32 627.48V647H1024.31V628.504C1024.31 624.216 1022.52 620.76 1017.14 620.76C1012.4 620.76 1009.97 624.536 1009.97 629.208ZM1043.48 606.488V616.216H1050.13V621.656H1043.48V637.656C1043.48 640.472 1044.63 641.88 1047.76 641.88C1048.53 641.88 1049.62 641.752 1050.13 641.624V646.744C1049.62 646.936 1048.08 647.32 1046.04 647.32C1040.79 647.32 1037.46 644.12 1037.46 638.552V621.656H1031.57V616.216H1033.24C1036.56 616.216 1037.97 614.168 1037.97 611.48V606.488H1043.48ZM1066.55 642.584C1071.67 642.584 1076.15 638.744 1076.15 631.576C1076.15 624.472 1071.67 620.632 1066.55 620.632C1061.43 620.632 1056.95 624.472 1056.95 631.576C1056.95 638.744 1061.43 642.584 1066.55 642.584ZM1066.55 615.256C1075.77 615.256 1082.3 622.232 1082.3 631.576C1082.3 640.984 1075.77 647.96 1066.55 647.96C1057.34 647.96 1050.81 640.984 1050.81 631.576C1050.81 622.232 1057.34 615.256 1066.55 615.256Z" fill="#FFFBF1"/>
<path d="M985.6 715.4C985.6 716.493 985.387 717.533 984.96 718.52C984.56 719.48 983.92 720.32 983.04 721.04C982.16 721.76 981.04 722.333 979.68 722.76C978.32 723.187 976.693 723.4 974.8 723.4C973.093 723.4 971.547 723.2 970.16 722.8C968.8 722.4 967.627 721.813 966.64 721.04C965.68 720.267 964.933 719.307 964.4 718.16C963.867 717.013 963.6 715.693 963.6 714.2L964 713.8H967.2L967.6 714.2C967.6 716.2 968.253 717.64 969.56 718.52C970.893 719.373 972.773 719.8 975.2 719.8C976.107 719.8 976.947 719.72 977.72 719.56C978.493 719.4 979.16 719.147 979.72 718.8C980.307 718.453 980.76 718 981.08 717.44C981.427 716.88 981.6 716.2 981.6 715.4C981.6 714.493 981.44 713.76 981.12 713.2C980.827 712.613 980.347 712.133 979.68 711.76C979.04 711.387 978.213 711.093 977.2 710.88C976.187 710.64 974.987 710.413 973.6 710.2C970.8 709.8 968.56 708.973 966.88 707.72C965.227 706.44 964.4 704.6 964.4 702.2C964.4 701.293 964.573 700.387 964.92 699.48C965.293 698.573 965.88 697.76 966.68 697.04C967.48 696.32 968.507 695.733 969.76 695.28C971.04 694.827 972.587 694.6 974.4 694.6C975.893 694.6 977.28 694.76 978.56 695.08C979.84 695.373 980.933 695.867 981.84 696.56C982.773 697.227 983.493 698.093 984 699.16C984.533 700.227 984.8 701.507 984.8 703L984.4 703.4H981.2L980.8 703C980.8 702.2 980.68 701.507 980.44 700.92C980.227 700.307 979.853 699.8 979.32 699.4C978.813 699 978.12 698.707 977.24 698.52C976.387 698.307 975.307 698.2 974 698.2C972.187 698.2 970.8 698.573 969.84 699.32C968.88 700.04 968.4 701 968.4 702.2C968.4 703 968.533 703.667 968.8 704.2C969.067 704.707 969.493 705.147 970.08 705.52C970.693 705.867 971.48 706.16 972.44 706.4C973.4 706.613 974.587 706.813 976 707C977.387 707.213 978.667 707.507 979.84 707.88C981.04 708.253 982.053 708.76 982.88 709.4C983.733 710.04 984.4 710.853 984.88 711.84C985.36 712.827 985.6 714.013 985.6 715.4ZM992.395 713C992.395 715.213 992.875 716.907 993.835 718.08C994.795 719.227 996.182 719.8 997.995 719.8C998.795 719.8 999.475 719.707 1000.04 719.52C1000.6 719.333 1001.06 719.093 1001.44 718.8C1001.81 718.507 1002.1 718.173 1002.32 717.8C1002.53 717.4 1002.69 717 1002.8 716.6L1003.2 716.2H1006.4L1006.8 716.6C1006.69 717.507 1006.44 718.373 1006.04 719.2C1005.64 720 1005.08 720.72 1004.36 721.36C1003.64 721.973 1002.74 722.467 1001.68 722.84C1000.61 723.213 999.382 723.4 997.995 723.4C996.502 723.4 995.155 723.16 993.955 722.68C992.782 722.2 991.782 721.507 990.955 720.6C990.129 719.693 989.489 718.6 989.035 717.32C988.609 716.04 988.395 714.6 988.395 713C988.395 711.4 988.609 709.96 989.035 708.68C989.489 707.4 990.129 706.307 990.955 705.4C991.782 704.493 992.782 703.8 993.955 703.32C995.155 702.84 996.502 702.6 997.995 702.6C999.382 702.6 1000.61 702.787 1001.68 703.16C1002.74 703.533 1003.64 704.04 1004.36 704.68C1005.08 705.293 1005.64 706.013 1006.04 706.84C1006.44 707.64 1006.69 708.493 1006.8 709.4L1006.4 709.8H1003.2L1002.8 709.4C1002.69 709 1002.53 708.613 1002.32 708.24C1002.1 707.84 1001.81 707.493 1001.44 707.2C1001.06 706.907 1000.6 706.667 1000.04 706.48C999.475 706.293 998.795 706.2 997.995 706.2C996.182 706.2 994.795 706.787 993.835 707.96C992.875 709.107 992.395 710.787 992.395 713ZM1009.18 713C1009.18 711.4 1009.39 709.96 1009.82 708.68C1010.27 707.4 1010.91 706.307 1011.74 705.4C1012.56 704.493 1013.56 703.8 1014.74 703.32C1015.94 702.84 1017.28 702.6 1018.78 702.6C1020.27 702.6 1021.6 702.84 1022.78 703.32C1023.98 703.8 1024.99 704.493 1025.82 705.4C1026.64 706.307 1027.27 707.4 1027.7 708.68C1028.15 709.96 1028.38 711.4 1028.38 713C1028.38 714.6 1028.15 716.04 1027.7 717.32C1027.27 718.6 1026.64 719.693 1025.82 720.6C1024.99 721.507 1023.98 722.2 1022.78 722.68C1021.6 723.16 1020.27 723.4 1018.78 723.4C1017.28 723.4 1015.94 723.16 1014.74 722.68C1013.56 722.2 1012.56 721.507 1011.74 720.6C1010.91 719.693 1010.27 718.6 1009.82 717.32C1009.39 716.04 1009.18 714.6 1009.18 713ZM1013.18 713C1013.18 715.213 1013.66 716.907 1014.62 718.08C1015.58 719.227 1016.96 719.8 1018.78 719.8C1020.59 719.8 1021.98 719.227 1022.94 718.08C1023.9 716.907 1024.38 715.213 1024.38 713C1024.38 710.787 1023.9 709.107 1022.94 707.96C1021.98 706.787 1020.59 706.2 1018.78 706.2C1016.96 706.2 1015.58 706.787 1014.62 707.96C1013.66 709.107 1013.18 710.787 1013.18 713ZM1050.38 713C1050.38 714.493 1050.18 715.88 1049.78 717.16C1049.4 718.44 1048.83 719.547 1048.06 720.48C1047.31 721.387 1046.39 722.107 1045.3 722.64C1044.2 723.147 1042.96 723.4 1041.58 723.4C1040.67 723.4 1039.88 723.267 1039.22 723C1038.58 722.76 1038.04 722.493 1037.62 722.2C1037.16 721.853 1036.75 721.453 1036.38 721H1035.98V730.6L1035.58 731H1032.38L1031.98 730.6V703.4L1032.38 703H1035.18L1035.58 703.4L1035.98 705H1036.38C1036.96 704.227 1037.71 703.64 1038.62 703.24C1039.52 702.813 1040.51 702.6 1041.58 702.6C1042.96 702.6 1044.2 702.867 1045.3 703.4C1046.39 703.907 1047.31 704.627 1048.06 705.56C1048.83 706.467 1049.4 707.56 1049.78 708.84C1050.18 710.12 1050.38 711.507 1050.38 713ZM1046.38 713C1046.38 710.76 1045.91 709.067 1044.98 707.92C1044.04 706.773 1042.78 706.2 1041.18 706.2C1039.58 706.2 1038.31 706.733 1037.38 707.8C1036.44 708.867 1035.98 710.6 1035.98 713C1035.98 715.4 1036.44 717.133 1037.38 718.2C1038.31 719.267 1039.58 719.8 1041.18 719.8C1042.78 719.8 1044.04 719.227 1044.98 718.08C1045.91 716.933 1046.38 715.24 1046.38 713ZM1065.17 706.6H1063.17C1062.37 706.6 1061.65 706.693 1061.01 706.88C1060.37 707.04 1059.82 707.347 1059.37 707.8C1058.92 708.253 1058.57 708.867 1058.33 709.64C1058.09 710.413 1057.97 711.4 1057.97 712.6V722.6L1057.57 723H1054.37L1053.97 722.6V703.4L1054.37 703H1057.17L1057.57 703.4L1057.97 705H1058.37C1058.66 704.707 1058.97 704.44 1059.29 704.2C1059.61 703.933 1059.97 703.72 1060.37 703.56C1060.77 703.373 1061.22 703.24 1061.73 703.16C1062.26 703.053 1062.88 703 1063.57 703H1065.17L1065.57 703.4V706.2L1065.17 706.6ZM1072.38 699.8H1069.18L1068.78 699.4V696.2L1069.18 695.8H1072.38L1072.78 696.2V699.4L1072.38 699.8ZM1072.38 723H1069.18L1068.78 722.6V703.4L1069.18 703H1072.38L1072.78 703.4V722.6L1072.38 723ZM1088.36 723H1085.16C1084.47 723 1083.78 722.907 1083.08 722.72C1082.42 722.507 1081.82 722.187 1081.28 721.76C1080.78 721.333 1080.36 720.8 1080.04 720.16C1079.72 719.493 1079.56 718.707 1079.56 717.8V707L1079.16 706.6H1076.36L1075.96 706.2V703.4L1076.36 703H1079.16L1079.56 702.6V699L1079.96 698.6H1083.16L1083.56 699V702.6L1083.96 703H1088.36L1088.76 703.4V706.2L1088.36 706.6H1083.96L1083.56 707V717.8C1083.56 718.413 1083.72 718.84 1084.04 719.08C1084.39 719.293 1084.76 719.4 1085.16 719.4H1088.36L1088.76 719.8V722.6L1088.36 723ZM1096.36 699.8H1093.16L1092.76 699.4V696.2L1093.16 695.8H1096.36L1096.76 696.2V699.4L1096.36 699.8ZM1096.36 723H1093.16L1092.76 722.6V703.4L1093.16 703H1096.36L1096.76 703.4V722.6L1096.36 723Z" fill="#FFFBF1"/>
<path d="M966 734L1102 734" stroke="#FF5361" stroke-width="4"/>
<path d="M1402.28 667.58C1379.57 771.645 1285.53 850.116 1151.27 892.635C1017.05 935.14 842.936 941.593 660.768 901.828C478.599 862.062 323.012 783.639 218.716 689.068C114.384 594.466 61.6037 483.947 84.3199 379.882C107.036 275.817 201.071 197.347 335.335 154.827C469.554 112.322 643.668 105.869 825.837 145.635C1008.01 185.4 1163.59 263.824 1267.89 358.394C1372.22 452.997 1425 563.516 1402.28 667.58Z" stroke="#FFFBF1" stroke-width="3"/>
</svg>
