<svg width="992" height="1052" viewBox="0 0 992 1052" fill="none" xmlns="http://www.w3.org/2000/svg">
<path d="M355.543 767.796L354.34 769H343.508L342.304 767.796L314.623 694.381V685.956L315.827 684.752H323.048L324.251 685.956L348.322 752.15H349.526L373.597 685.956L374.8 684.752H382.021L383.225 685.956V694.381L355.543 767.796ZM390.46 726.876C390.46 720.537 391.343 714.72 393.108 709.425C394.873 704.129 397.441 699.556 400.811 695.704C404.181 691.853 408.313 688.884 413.207 686.798C418.182 684.632 423.838 683.549 430.177 683.549C436.516 683.549 442.132 684.632 447.027 686.798C452.001 688.884 456.173 691.853 459.543 695.704C462.913 699.556 465.481 704.129 467.246 709.425C469.011 714.72 469.894 720.537 469.894 726.876C469.894 733.215 469.011 739.032 467.246 744.327C465.481 749.623 462.913 754.196 459.543 758.048C456.173 761.899 452.001 764.908 447.027 767.074C442.132 769.16 436.516 770.204 430.177 770.204C423.838 770.204 418.182 769.16 413.207 767.074C408.313 764.908 404.181 761.899 400.811 758.048C397.441 754.196 394.873 749.623 393.108 744.327C391.343 739.032 390.46 733.215 390.46 726.876ZM402.496 726.876C402.496 731.69 403.097 736.103 404.301 740.115C405.504 744.047 407.27 747.457 409.596 750.345C411.923 753.234 414.812 755.48 418.262 757.085C421.712 758.609 425.684 759.372 430.177 759.372C434.67 759.372 438.642 758.609 442.092 757.085C445.542 755.48 448.431 753.234 450.758 750.345C453.084 747.457 454.85 744.047 456.053 740.115C457.257 736.103 457.858 731.69 457.858 726.876C457.858 722.062 457.257 717.689 456.053 713.758C454.85 709.746 453.084 706.296 450.758 703.407C448.431 700.519 445.542 698.312 442.092 696.788C438.642 695.183 434.67 694.381 430.177 694.381C425.684 694.381 421.712 695.183 418.262 696.788C414.812 698.312 411.923 700.519 409.596 703.407C407.27 706.296 405.504 709.746 404.301 713.758C403.097 717.689 402.496 722.062 402.496 726.876ZM495.196 769H485.568L484.364 767.796V685.956L485.568 684.752H495.196L496.4 685.956V767.796L495.196 769Z" fill="#FFFBF1"/>
<path d="M1429.64 388.812C1451.25 495.347 1395.72 607.321 1287.84 702.271C1180 797.19 1020.06 874.858 833.594 912.68C647.124 950.503 469.569 941.29 333.263 895.894C196.912 850.483 102.141 768.994 80.5325 662.46C58.9235 555.926 114.452 443.951 222.333 349.001C330.179 254.082 490.111 176.415 676.581 138.592C863.05 100.769 1040.61 109.982 1176.91 155.378C1313.26 200.789 1408.03 282.278 1429.64 388.812Z" stroke="#FFFBF1" stroke-width="3"/>
</svg>
