<svg width="37" height="32" viewBox="0 0 37 32" fill="none" xmlns="http://www.w3.org/2000/svg">
<path d="M36.982 7.40256C37.2017 2.58334 35.4085 0.118048 31.6065 0.00668791C26.4792 -0.158433 23.0049 2.73395 21.186 8.68897C22.1255 8.28619 23.039 8.08224 23.9248 8.08224C25.8068 8.08224 26.6371 9.13995 26.4152 11.2511C26.3034 12.5303 25.4732 14.3914 23.9248 16.8371C22.3734 19.2844 21.2095 20.5073 20.436 20.5073C19.4388 20.5073 18.5254 18.6235 17.6942 14.8522C17.4156 13.7458 16.9177 10.9192 16.1988 6.37344C15.5336 2.16094 13.7612 0.193142 10.8825 0.469623C9.66395 0.58141 7.83484 1.68862 5.39901 3.79209C3.62708 5.3985 1.82612 7.00277 0 8.60662L1.73994 10.8483C3.39881 9.68865 4.36734 9.10625 4.64424 9.10625C5.91485 9.10625 7.10141 11.0984 8.20903 15.0783C9.20486 18.7281 10.1998 22.3782 11.1953 26.0283C12.686 30.0104 14.5109 32 16.6685 32C20.1492 32 24.4052 28.7304 29.4356 22.1939C34.3021 15.9347 36.8169 11.0036 36.982 7.40256Z" fill="#FFFBF1"/>
</svg>
