<svg width="32" height="32" viewBox="0 0 32 32" fill="none" xmlns="http://www.w3.org/2000/svg">
<path d="M24.544 5.536C24.1643 5.536 23.793 5.64861 23.4773 5.85958C23.1616 6.07055 22.9155 6.37041 22.7702 6.72125C22.6248 7.07208 22.5868 7.45813 22.6609 7.83057C22.735 8.20302 22.9178 8.54513 23.1864 8.81365C23.4549 9.08216 23.797 9.26502 24.1694 9.33911C24.5419 9.41319 24.9279 9.37517 25.2788 9.22985C25.6296 9.08453 25.9294 8.83844 26.1404 8.5227C26.3514 8.20695 26.464 7.83574 26.464 7.456C26.464 6.94678 26.2617 6.45843 25.9016 6.09836C25.5416 5.73829 25.0532 5.536 24.544 5.536ZM31.904 9.408C31.8729 8.08048 31.6243 6.76704 31.168 5.52C30.7612 4.45301 30.128 3.48685 29.312 2.688C28.5197 1.86788 27.5513 1.23868 26.48 0.848C25.2362 0.377857 23.9214 0.123536 22.592 0.0959999C20.896 -8.9407e-08 20.352 0 16 0C11.648 0 11.104 -8.9407e-08 9.408 0.0959999C8.07864 0.123536 6.76375 0.377857 5.52 0.848C4.45068 1.24264 3.48309 1.8713 2.688 2.688C1.86788 3.48028 1.23868 4.4487 0.848 5.52C0.377857 6.76375 0.123536 8.07864 0.0959999 9.408C-8.9407e-08 11.104 0 11.648 0 16C0 20.352 -8.9407e-08 20.896 0.0959999 22.592C0.123536 23.9214 0.377857 25.2362 0.848 26.48C1.23868 27.5513 1.86788 28.5197 2.688 29.312C3.48309 30.1287 4.45068 30.7574 5.52 31.152C6.76375 31.6221 8.07864 31.8765 9.408 31.904C11.104 32 11.648 32 16 32C20.352 32 20.896 32 22.592 31.904C23.9214 31.8765 25.2362 31.6221 26.48 31.152C27.5513 30.7613 28.5197 30.1321 29.312 29.312C30.1316 28.5161 30.7653 27.5491 31.168 26.48C31.6243 25.233 31.8729 23.9195 31.904 22.592C31.904 20.896 32 20.352 32 16C32 11.648 32 11.104 31.904 9.408ZM29.024 22.4C29.0124 23.4156 28.8284 24.4219 28.48 25.376C28.2245 26.0723 27.8142 26.7015 27.28 27.216C26.761 27.7448 26.1332 28.1543 25.44 28.416C24.4859 28.7644 23.4796 28.9484 22.464 28.96C20.864 29.04 20.272 29.056 16.064 29.056C11.856 29.056 11.264 29.056 9.664 28.96C8.60943 28.9797 7.55935 28.8174 6.56 28.48C5.89725 28.2049 5.29817 27.7965 4.8 27.28C4.26894 26.766 3.86375 26.1363 3.616 25.44C3.22537 24.4722 3.00871 23.4431 2.976 22.4C2.976 20.8 2.88 20.208 2.88 16C2.88 11.792 2.88 11.2 2.976 9.6C2.98317 8.56169 3.17272 7.53271 3.536 6.56C3.81768 5.88466 4.25002 5.28265 4.8 4.8C5.2861 4.24987 5.88686 3.81295 6.56 3.52C7.53528 3.16807 8.5632 2.98413 9.6 2.976C11.2 2.976 11.792 2.88 16 2.88C20.208 2.88 20.8 2.88 22.4 2.976C23.4156 2.98765 24.4219 3.17159 25.376 3.52C26.1031 3.78984 26.7557 4.22855 27.28 4.8C27.8043 5.29149 28.214 5.89237 28.48 6.56C28.8356 7.53429 29.0197 8.56285 29.024 9.6C29.104 11.2 29.12 11.792 29.12 16C29.12 20.208 29.104 20.8 29.024 22.4ZM16 7.792C14.3773 7.79516 12.7919 8.27924 11.4442 9.18307C10.0966 10.0869 9.04701 11.3699 8.42821 12.87C7.80942 14.3701 7.64916 16.0199 7.96767 17.6111C8.28618 19.2022 9.06918 20.6633 10.2177 21.8096C11.3663 22.9559 12.8288 23.736 14.4206 24.0514C16.0123 24.3668 17.6619 24.2034 19.1607 23.5817C20.6596 22.9599 21.9406 21.9079 22.8418 20.5585C23.743 19.209 24.224 17.6227 24.224 16C24.2261 14.9202 24.0147 13.8506 23.602 12.8527C23.1892 11.8549 22.5833 10.9485 21.819 10.1857C21.0547 9.42287 20.1471 8.81868 19.1485 8.40789C18.1498 7.99709 17.0798 7.78778 16 7.792ZM16 21.328C14.9462 21.328 13.9161 21.0155 13.0399 20.4301C12.1637 19.8446 11.4808 19.0125 11.0776 18.0389C10.6743 17.0654 10.5688 15.9941 10.7744 14.9606C10.98 13.927 11.4874 12.9777 12.2325 12.2325C12.9777 11.4874 13.927 10.98 14.9606 10.7744C15.9941 10.5688 17.0654 10.6743 18.0389 11.0776C19.0125 11.4808 19.8446 12.1637 20.4301 13.0399C21.0155 13.9161 21.328 14.9462 21.328 16C21.328 16.6997 21.1902 17.3925 20.9224 18.0389C20.6547 18.6854 20.2622 19.2727 19.7675 19.7675C19.2727 20.2622 18.6854 20.6547 18.0389 20.9224C17.3925 21.1902 16.6997 21.328 16 21.328Z" fill="#FFFBF1"/>
</svg>
